<?xml version="1.0" encoding="UTF-8" standalone="no"?>
<!-- Created with Inkscape (http://www.inkscape.org/) -->

<svg
   width="210mm"
   height="297mm"
   viewBox="0 0 210 297"
   version="1.1"
   id="svg5"
   sodipodi:docname="Delrin_13_39_M2.svg"
   inkscape:version="1.1.2 (1:1.1+202202050852+0a00cf5339)"
   xmlns:inkscape="http://www.inkscape.org/namespaces/inkscape"
   xmlns:sodipodi="http://sodipodi.sourceforge.net/DTD/sodipodi-0.dtd"
   xmlns="http://www.w3.org/2000/svg"
   xmlns:svg="http://www.w3.org/2000/svg">
  <sodipodi:namedview
     id="namedview7"
     pagecolor="#ffffff"
     bordercolor="#666666"
     borderopacity="1.0"
     inkscape:pageshadow="2"
     inkscape:pageopacity="0.0"
     inkscape:pagecheckerboard="0"
     inkscape:document-units="mm"
     showgrid="true"
     inkscape:zoom="0.83296328"
     inkscape:cx="219.69756"
     inkscape:cy="178.87943"
     inkscape:window-width="1814"
     inkscape:window-height="962"
     inkscape:window-x="20"
     inkscape:window-y="38"
     inkscape:window-maximized="0"
     inkscape:current-layer="layer2"
     inkscape:object-nodes="false"
     inkscape:snap-intersection-paths="true"
     inkscape:snap-bbox="true"
     inkscape:bbox-nodes="true"
     inkscape:snap-center="true">
    <inkscape:grid
       type="xygrid"
       id="grid1317" />
  </sodipodi:namedview>
  <defs
     id="defs2" />
  <g
     inkscape:groupmode="layer"
     id="layer2"
     inkscape:label="Laser"
     style="display:inline">
    <g
       id="g1331"
       transform="translate(37.797064,-124.39549)"
       style="display:inline">
      <path
         id="path1557"
         style="fill:none;stroke:#ff0000;stroke-width:0.377953;stroke-miterlimit:4;stroke-dasharray:none"
         d="m 113.38672,612.2832 a 11.338583,11.338583 0 0 0 -7.26953,20.03125 h 14.53711 a 11.338583,11.338583 0 0 0 -7.26758,-20.03125 z"
         transform="matrix(0.26458333,0,0,0.26458333,-0.793969,0.39556)" />
      <circle
         style="fill:none;stroke:#ff0000;stroke-width:0.1;stroke-miterlimit:4;stroke-dasharray:none;stop-color:#000000"
         id="circle1841-3"
         cx="36.206032"
         cy="165.39555"
         r="1" />
      <path
         style="fill:none;stroke:#ff0000;stroke-width:0.1;stroke-miterlimit:4;stroke-dasharray:none"
         d="m 40.854331,163.62546 0.2957,-4e-4 0.3011,0.0374 0.304,0.0637 0.306,0.0863 0.3071,0.1069 0.3076,0.1262 0.3074,0.1446 0.3066,0.1625 0.3052,0.1798 0.3033,0.1967 0.3009,0.2133 0.0051,0.2265 0.0017,0.2266 -0.0017,0.2266 -0.0051,0.2265 -0.3009,0.2133 -0.3033,0.1967 -0.3052,0.1798 -0.3066,0.1625 -0.3074,0.1446 -0.3076,0.1262 -0.3071,0.1069 -0.306,0.0863 -0.304,0.0637 -0.3011,0.0374 -0.2957,-4e-4 -0.7731,-0.1175 -0.0863,0.4921 -0.1085,0.4878 -0.1306,0.4823 -0.1523,0.4758 0.7391,0.2553 0.2621,0.1371 0.2492,0.173 0.2396,0.1977 0.2308,0.2186 0.2223,0.2374 0.2137,0.2546 0.205,0.2709 0.196,0.2864 0.1867,0.301 0.1771,0.3152 0.1672,0.3287 -0.1007,0.2029 -0.1038,0.2014 -0.1068,0.1999 -0.1098,0.1981 -0.3655,0.0492 -0.36,0.0332 -0.3538,0.0174 -0.347,0.001 -0.3394,-0.0148 -0.331,-0.0312 -0.3216,-0.0481 -0.311,-0.0658 -0.2988,-0.0849 -0.2839,-0.1068 -0.2618,-0.1378 -0.6299,-0.4633 -0.3051,0.3957 -0.3228,0.3814 -0.3397,0.3664 -0.3561,0.3506 0.5359,0.5695 0.1683,0.2432 0.1403,0.269 0.1203,0.2864 0.1028,0.3008 0.0865,0.3135 0.0709,0.3248 0.0556,0.3352 0.0404,0.3446 0.0255,0.3533 0.0104,0.3614 -0.0048,0.3688 -0.1835,0.1329 -0.1854,0.1301 -0.1874,0.1272 -0.1894,0.1245 -0.3464,-0.1264 -0.3342,-0.1378 -0.3214,-0.1491 -0.3079,-0.1601 -0.2936,-0.1708 -0.2786,-0.1814 -0.2624,-0.1921 -0.2449,-0.2028 -0.2251,-0.214 -0.2018,-0.2265 -0.1677,-0.2436 -0.3425,-0.703 -0.454,0.2085 -0.463,0.1878 -0.4711,0.1665 -0.4782,0.145 0.2098,0.7533 0.036,0.2936 -8e-4,0.3033 -0.0266,0.3095 -0.0488,0.3141 -0.069,0.3178 -0.0882,0.3205 -0.1065,0.3226 -0.1243,0.324 -0.1417,0.3247 -0.1588,0.3248 -0.1755,0.3243 -0.2243,0.0324 -0.2246,0.029 -0.2252,0.0256 -0.2254,0.0222 -0.2481,-0.2728 -0.2318,-0.2774 -0.2153,-0.2814 -0.1983,-0.2848 -0.1806,-0.2877 -0.1623,-0.2901 -0.1431,-0.292 -0.1226,-0.2934 -0.0998,-0.2941 -0.0735,-0.2943 -0.0352,-0.2937 0.0234,-0.7816 -0.4989,-0.0264 -0.4973,-0.0489 -0.4945,-0.0715 -0.4908,-0.0938 -0.1643,0.7645 -0.1045,0.2767 -0.1417,0.2682 -0.1674,0.2617 -0.1892,0.2555 -0.2088,0.2492 -0.227,0.2429 -0.2443,0.2361 -0.2606,0.2291 -0.2764,0.2217 -0.2915,0.2138 -0.3061,0.2056 -0.2136,-0.0755 -0.2125,-0.0788 -0.2112,-0.0819 -0.21,-0.0851 -0.0928,-0.3569 -0.0764,-0.3534 -0.0599,-0.3492 -0.0431,-0.3442 -0.0263,-0.3388 -0.0089,-0.3323 0.009,-0.3251 0.0279,-0.3167 0.0482,-0.3068 0.0718,-0.2947 0.1052,-0.2764 0.384,-0.6813 -0.4296,-0.2552 -0.4175,-0.2744 -0.4047,-0.2931 -0.3909,-0.3112 -0.5008,0.6007 -0.2211,0.1964 -0.2501,0.1716 -0.2698,0.1539 -0.2863,0.1383 -0.3007,0.1237 -0.3139,0.1095 -0.326,0.0956 -0.3373,0.0817 -0.3477,0.0679 -0.3575,0.0538 -0.3666,0.0398 -0.154,-0.1661 -0.1516,-0.1685 -0.1489,-0.1707 -0.1464,-0.1729 0.0837,-0.3592 0.0966,-0.3484 0.1092,-0.337 0.1218,-0.3249 0.1342,-0.3121 0.1465,-0.2984 0.1591,-0.2837 0.1718,-0.2674 0.1853,-0.2493 0.2005,-0.2276 0.2217,-0.1959 0.6566,-0.4247 -0.2618,-0.4256 -0.2422,-0.437 -0.2221,-0.4476 -0.2016,-0.4572 -0.7225,0.299 -0.2871,0.0712 -0.3012,0.0357 -0.3104,0.0109 -0.3178,-0.0105 -0.3238,-0.0303 -0.3288,-0.0489 -0.3331,-0.0668 -0.3366,-0.0844 -0.3394,-0.1015 -0.3415,-0.1184 -0.3432,-0.1352 -0.0591,-0.2187 -0.0559,-0.2196 -0.0526,-0.2203 -0.0492,-0.2212 0.241,-0.2791 0.2474,-0.2636 0.2534,-0.2477 0.2588,-0.2311 0.2638,-0.214 0.2685,-0.1961 0.2726,-0.1773 0.2765,-0.157 0.2799,-0.1346 0.2833,-0.1083 0.2873,-0.0704 0.7788,-0.071 -0.0341,-0.4985 -0.0113,-0.4995 0.0113,-0.4995 0.0341,-0.4985 -0.7788,-0.071 -0.2873,-0.0704 -0.2833,-0.1083 -0.2799,-0.1346 -0.2765,-0.157 -0.2726,-0.1773 -0.2685,-0.1961 -0.2638,-0.214 -0.2588,-0.2311 -0.2534,-0.2477 -0.2474,-0.2636 -0.241,-0.2791 0.0492,-0.2212 0.0526,-0.2203 0.0559,-0.2196 0.0591,-0.2187 0.3432,-0.1352 0.3415,-0.1184 0.3394,-0.1015 0.3366,-0.0844 0.3331,-0.0668 0.3288,-0.0489 0.3238,-0.0303 0.3178,-0.0105 0.3104,0.0109 0.3012,0.0357 0.2871,0.0712 0.7225,0.299 0.2016,-0.4572 0.2221,-0.4476 0.2422,-0.437 0.2618,-0.4256 -0.6566,-0.4247 -0.2217,-0.1959 -0.2005,-0.2276 -0.1853,-0.2493 -0.1718,-0.2674 -0.1591,-0.2837 -0.1465,-0.2984 -0.1342,-0.3121 -0.1218,-0.3249 -0.1092,-0.337 -0.0966,-0.3484 -0.0837,-0.3592 0.1464,-0.1729 0.1489,-0.1707 0.1516,-0.1685 0.154,-0.1661 0.3666,0.0398 0.3575,0.0538 0.3477,0.0679 0.3373,0.0817 0.326,0.0956 0.3139,0.1095 0.3007,0.1237 0.2863,0.1383 0.2698,0.1539 0.2501,0.1716 0.2211,0.1964 0.5008,0.6007 0.3909,-0.3112 0.4047,-0.2931 0.4175,-0.2744 0.4296,-0.2552 -0.384,-0.6813 -0.1052,-0.2764 -0.0718,-0.2947 -0.0482,-0.3068 -0.0279,-0.3167 -0.009,-0.3251 0.0089,-0.3323 0.0263,-0.3388 0.0431,-0.3442 0.0599,-0.3492 0.0764,-0.3534 0.0928,-0.3569 0.21,-0.0851 0.2112,-0.0819 0.2125,-0.0788 0.2136,-0.0755 0.3061,0.2056 0.2915,0.2138 0.2764,0.2217 0.2606,0.2291 0.2443,0.2361 0.227,0.2429 0.2088,0.2492 0.1892,0.2555 0.1674,0.2617 0.1417,0.2682 0.1045,0.2767 0.1643,0.7645 0.4908,-0.0938 0.4945,-0.0715 0.4973,-0.0489 0.4989,-0.0264 -0.0234,-0.7816 0.0352,-0.2937 0.0735,-0.2943 0.0998,-0.2941 0.1226,-0.2934 0.1431,-0.292 0.1623,-0.2901 0.1806,-0.2877 0.1983,-0.2848 0.2153,-0.2814 0.2318,-0.2774 0.2481,-0.2728 0.2254,0.0222 0.2252,0.0256 0.2246,0.029 0.2243,0.0324 0.1755,0.3243 0.1588,0.3248 0.1417,0.3247 0.1243,0.324 0.1065,0.3226 0.0882,0.3205 0.069,0.3178 0.0488,0.3141 0.0266,0.3095 8e-4,0.3033 -0.036,0.2936 -0.2098,0.7533 0.4782,0.145 0.4711,0.1665 0.463,0.1878 0.454,0.2085 0.3425,-0.703 0.1677,-0.2436 0.2018,-0.2265 0.2251,-0.214 0.2449,-0.2028 0.2624,-0.1921 0.2786,-0.1814 0.2936,-0.1708 0.3079,-0.1601 0.3214,-0.1491 0.3342,-0.1378 0.3464,-0.1264 0.1894,0.1245 0.1874,0.1272 0.1854,0.1301 0.1835,0.1329 0.0048,0.3688 -0.0104,0.3614 -0.0255,0.3533 -0.0404,0.3446 -0.0556,0.3352 -0.0709,0.3248 -0.0865,0.3135 -0.1028,0.3008 -0.1203,0.2864 -0.1403,0.269 -0.1683,0.2432 -0.5359,0.5695 0.3561,0.3506 0.3397,0.3664 0.3228,0.3814 0.3051,0.3957 0.6299,-0.4633 0.2618,-0.1378 0.2839,-0.1068 0.2988,-0.0849 0.311,-0.0658 0.3216,-0.0481 0.331,-0.0312 0.3394,-0.0148 0.347,10e-4 0.3538,0.0174 0.36,0.0332 0.3655,0.0492 0.1098,0.1981 0.1068,0.1999 0.1038,0.2014 0.1007,0.2029 -0.1672,0.3287 -0.1771,0.3152 -0.1867,0.301 -0.196,0.2864 -0.205,0.2709 -0.2137,0.2546 -0.2223,0.2374 -0.2308,0.2186 -0.2396,0.1977 -0.2492,0.173 -0.2621,0.1371 -0.7391,0.2553 0.1523,0.4758 0.1306,0.4823 0.1085,0.4878 0.0863,0.4921 z"
         id="path1213" />
      <path
         inkscape:label="Center cross"
         style="fill:none;stroke:#0000ff;stroke-width:0.1;stroke-miterlimit:4;stroke-dasharray:none"
         d="m 27.111636,165.39556 h 4.18879 m -2.094395,-2.0944 v 4.1888"
         id="path1215" />
      <circle
         style="fill:none;stroke:#0000ff;stroke-width:0.1;stroke-miterlimit:4;stroke-dasharray:none"
         cx="29.206032"
         cy="165.39555"
         r="13"
         inkscape:label="Pitch circle"
         id="circle1217" />
      <circle
         style="fill:none;stroke:#ff0000;stroke-width:0.1;stroke-miterlimit:4;stroke-dasharray:none;stop-color:#000000"
         id="circle1865"
         cx="22.206032"
         cy="165.39555"
         r="1" />
    </g>
    <g
       id="g1586"
       transform="translate(-14.201394,-150.39698)"
       style="display:inline">
      <path
         id="path1578"
         style="fill:none;stroke:#ff0000;stroke-width:0.377953;stroke-miterlimit:4;stroke-dasharray:none"
         d="m 222.99219,600.94531 v 12.01953 a 11.338583,11.338583 0 0 0 -3.48828,19.34961 h 3.48828 v 13.98438 h 7.55859 v -13.98438 h 3.49024 a 11.338583,11.338583 0 0 0 -3.49024,-19.37109 v -11.99805 z"
         transform="matrix(0.26458333,0,0,0.26458333,-30.793969,0.39556)" />
      <path
         style="fill:none;stroke:#ff0000;stroke-width:0.1;stroke-miterlimit:4;stroke-dasharray:none"
         d="m 40.854331,163.62546 0.2957,-4e-4 0.3011,0.0374 0.304,0.0637 0.306,0.0863 0.3071,0.1069 0.3076,0.1262 0.3074,0.1446 0.3066,0.1625 0.3052,0.1798 0.3033,0.1967 0.3009,0.2133 0.0051,0.2265 0.0017,0.2266 -0.0017,0.2266 -0.0051,0.2265 -0.3009,0.2133 -0.3033,0.1967 -0.3052,0.1798 -0.3066,0.1625 -0.3074,0.1446 -0.3076,0.1262 -0.3071,0.1069 -0.306,0.0863 -0.304,0.0637 -0.3011,0.0374 -0.2957,-4e-4 -0.7731,-0.1175 -0.0863,0.4921 -0.1085,0.4878 -0.1306,0.4823 -0.1523,0.4758 0.7391,0.2553 0.2621,0.1371 0.2492,0.173 0.2396,0.1977 0.2308,0.2186 0.2223,0.2374 0.2137,0.2546 0.205,0.2709 0.196,0.2864 0.1867,0.301 0.1771,0.3152 0.1672,0.3287 -0.1007,0.2029 -0.1038,0.2014 -0.1068,0.1999 -0.1098,0.1981 -0.3655,0.0492 -0.36,0.0332 -0.3538,0.0174 -0.347,0.001 -0.3394,-0.0148 -0.331,-0.0312 -0.3216,-0.0481 -0.311,-0.0658 -0.2988,-0.0849 -0.2839,-0.1068 -0.2618,-0.1378 -0.6299,-0.4633 -0.3051,0.3957 -0.3228,0.3814 -0.3397,0.3664 -0.3561,0.3506 0.5359,0.5695 0.1683,0.2432 0.1403,0.269 0.1203,0.2864 0.1028,0.3008 0.0865,0.3135 0.0709,0.3248 0.0556,0.3352 0.0404,0.3446 0.0255,0.3533 0.0104,0.3614 -0.0048,0.3688 -0.1835,0.1329 -0.1854,0.1301 -0.1874,0.1272 -0.1894,0.1245 -0.3464,-0.1264 -0.3342,-0.1378 -0.3214,-0.1491 -0.3079,-0.1601 -0.2936,-0.1708 -0.2786,-0.1814 -0.2624,-0.1921 -0.2449,-0.2028 -0.2251,-0.214 -0.2018,-0.2265 -0.1677,-0.2436 -0.3425,-0.703 -0.454,0.2085 -0.463,0.1878 -0.4711,0.1665 -0.4782,0.145 0.2098,0.7533 0.036,0.2936 -8e-4,0.3033 -0.0266,0.3095 -0.0488,0.3141 -0.069,0.3178 -0.0882,0.3205 -0.1065,0.3226 -0.1243,0.324 -0.1417,0.3247 -0.1588,0.3248 -0.1755,0.3243 -0.2243,0.0324 -0.2246,0.029 -0.2252,0.0256 -0.2254,0.0222 -0.2481,-0.2728 -0.2318,-0.2774 -0.2153,-0.2814 -0.1983,-0.2848 -0.1806,-0.2877 -0.1623,-0.2901 -0.1431,-0.292 -0.1226,-0.2934 -0.0998,-0.2941 -0.0735,-0.2943 -0.0352,-0.2937 0.0234,-0.7816 -0.4989,-0.0264 -0.4973,-0.0489 -0.4945,-0.0715 -0.4908,-0.0938 -0.1643,0.7645 -0.1045,0.2767 -0.1417,0.2682 -0.1674,0.2617 -0.1892,0.2555 -0.2088,0.2492 -0.227,0.2429 -0.2443,0.2361 -0.2606,0.2291 -0.2764,0.2217 -0.2915,0.2138 -0.3061,0.2056 -0.2136,-0.0755 -0.2125,-0.0788 -0.2112,-0.0819 -0.21,-0.0851 -0.0928,-0.3569 -0.0764,-0.3534 -0.0599,-0.3492 -0.0431,-0.3442 -0.0263,-0.3388 -0.0089,-0.3323 0.009,-0.3251 0.0279,-0.3167 0.0482,-0.3068 0.0718,-0.2947 0.1052,-0.2764 0.384,-0.6813 -0.4296,-0.2552 -0.4175,-0.2744 -0.4047,-0.2931 -0.3909,-0.3112 -0.5008,0.6007 -0.2211,0.1964 -0.2501,0.1716 -0.2698,0.1539 -0.2863,0.1383 -0.3007,0.1237 -0.3139,0.1095 -0.326,0.0956 -0.3373,0.0817 -0.3477,0.0679 -0.3575,0.0538 -0.3666,0.0398 -0.154,-0.1661 -0.1516,-0.1685 -0.1489,-0.1707 -0.1464,-0.1729 0.0837,-0.3592 0.0966,-0.3484 0.1092,-0.337 0.1218,-0.3249 0.1342,-0.3121 0.1465,-0.2984 0.1591,-0.2837 0.1718,-0.2674 0.1853,-0.2493 0.2005,-0.2276 0.2217,-0.1959 0.6566,-0.4247 -0.2618,-0.4256 -0.2422,-0.437 -0.2221,-0.4476 -0.2016,-0.4572 -0.7225,0.299 -0.2871,0.0712 -0.3012,0.0357 -0.3104,0.0109 -0.3178,-0.0105 -0.3238,-0.0303 -0.3288,-0.0489 -0.3331,-0.0668 -0.3366,-0.0844 -0.3394,-0.1015 -0.3415,-0.1184 -0.3432,-0.1352 -0.0591,-0.2187 -0.0559,-0.2196 -0.0526,-0.2203 -0.0492,-0.2212 0.241,-0.2791 0.2474,-0.2636 0.2534,-0.2477 0.2588,-0.2311 0.2638,-0.214 0.2685,-0.1961 0.2726,-0.1773 0.2765,-0.157 0.2799,-0.1346 0.2833,-0.1083 0.2873,-0.0704 0.7788,-0.071 -0.0341,-0.4985 -0.0113,-0.4995 0.0113,-0.4995 0.0341,-0.4985 -0.7788,-0.071 -0.2873,-0.0704 -0.2833,-0.1083 -0.2799,-0.1346 -0.2765,-0.157 -0.2726,-0.1773 -0.2685,-0.1961 -0.2638,-0.214 -0.2588,-0.2311 -0.2534,-0.2477 -0.2474,-0.2636 -0.241,-0.2791 0.0492,-0.2212 0.0526,-0.2203 0.0559,-0.2196 0.0591,-0.2187 0.3432,-0.1352 0.3415,-0.1184 0.3394,-0.1015 0.3366,-0.0844 0.3331,-0.0668 0.3288,-0.0489 0.3238,-0.0303 0.3178,-0.0105 0.3104,0.0109 0.3012,0.0357 0.2871,0.0712 0.7225,0.299 0.2016,-0.4572 0.2221,-0.4476 0.2422,-0.437 0.2618,-0.4256 -0.6566,-0.4247 -0.2217,-0.1959 -0.2005,-0.2276 -0.1853,-0.2493 -0.1718,-0.2674 -0.1591,-0.2837 -0.1465,-0.2984 -0.1342,-0.3121 -0.1218,-0.3249 -0.1092,-0.337 -0.0966,-0.3484 -0.0837,-0.3592 0.1464,-0.1729 0.1489,-0.1707 0.1516,-0.1685 0.154,-0.1661 0.3666,0.0398 0.3575,0.0538 0.3477,0.0679 0.3373,0.0817 0.326,0.0956 0.3139,0.1095 0.3007,0.1237 0.2863,0.1383 0.2698,0.1539 0.2501,0.1716 0.2211,0.1964 0.5008,0.6007 0.3909,-0.3112 0.4047,-0.2931 0.4175,-0.2744 0.4296,-0.2552 -0.384,-0.6813 -0.1052,-0.2764 -0.0718,-0.2947 -0.0482,-0.3068 -0.0279,-0.3167 -0.009,-0.3251 0.0089,-0.3323 0.0263,-0.3388 0.0431,-0.3442 0.0599,-0.3492 0.0764,-0.3534 0.0928,-0.3569 0.21,-0.0851 0.2112,-0.0819 0.2125,-0.0788 0.2136,-0.0755 0.3061,0.2056 0.2915,0.2138 0.2764,0.2217 0.2606,0.2291 0.2443,0.2361 0.227,0.2429 0.2088,0.2492 0.1892,0.2555 0.1674,0.2617 0.1417,0.2682 0.1045,0.2767 0.1643,0.7645 0.4908,-0.0938 0.4945,-0.0715 0.4973,-0.0489 0.4989,-0.0264 -0.0234,-0.7816 0.0352,-0.2937 0.0735,-0.2943 0.0998,-0.2941 0.1226,-0.2934 0.1431,-0.292 0.1623,-0.2901 0.1806,-0.2877 0.1983,-0.2848 0.2153,-0.2814 0.2318,-0.2774 0.2481,-0.2728 0.2254,0.0222 0.2252,0.0256 0.2246,0.029 0.2243,0.0324 0.1755,0.3243 0.1588,0.3248 0.1417,0.3247 0.1243,0.324 0.1065,0.3226 0.0882,0.3205 0.069,0.3178 0.0488,0.3141 0.0266,0.3095 8e-4,0.3033 -0.036,0.2936 -0.2098,0.7533 0.4782,0.145 0.4711,0.1665 0.463,0.1878 0.454,0.2085 0.3425,-0.703 0.1677,-0.2436 0.2018,-0.2265 0.2251,-0.214 0.2449,-0.2028 0.2624,-0.1921 0.2786,-0.1814 0.2936,-0.1708 0.3079,-0.1601 0.3214,-0.1491 0.3342,-0.1378 0.3464,-0.1264 0.1894,0.1245 0.1874,0.1272 0.1854,0.1301 0.1835,0.1329 0.0048,0.3688 -0.0104,0.3614 -0.0255,0.3533 -0.0404,0.3446 -0.0556,0.3352 -0.0709,0.3248 -0.0865,0.3135 -0.1028,0.3008 -0.1203,0.2864 -0.1403,0.269 -0.1683,0.2432 -0.5359,0.5695 0.3561,0.3506 0.3397,0.3664 0.3228,0.3814 0.3051,0.3957 0.6299,-0.4633 0.2618,-0.1378 0.2839,-0.1068 0.2988,-0.0849 0.311,-0.0658 0.3216,-0.0481 0.331,-0.0312 0.3394,-0.0148 0.347,10e-4 0.3538,0.0174 0.36,0.0332 0.3655,0.0492 0.1098,0.1981 0.1068,0.1999 0.1038,0.2014 0.1007,0.2029 -0.1672,0.3287 -0.1771,0.3152 -0.1867,0.301 -0.196,0.2864 -0.205,0.2709 -0.2137,0.2546 -0.2223,0.2374 -0.2308,0.2186 -0.2396,0.1977 -0.2492,0.173 -0.2621,0.1371 -0.7391,0.2553 0.1523,0.4758 0.1306,0.4823 0.1085,0.4878 0.0863,0.4921 z"
         id="path1580" />
      <path
         inkscape:label="Center cross"
         style="fill:none;stroke:#0000ff;stroke-width:0.1;stroke-miterlimit:4;stroke-dasharray:none"
         d="m 27.111636,165.39556 h 4.18879 m -2.094395,-2.0944 v 4.1888"
         id="path1582" />
      <circle
         style="fill:none;stroke:#0000ff;stroke-width:0.1;stroke-miterlimit:4;stroke-dasharray:none"
         cx="29.206032"
         cy="165.39555"
         r="13"
         inkscape:label="Pitch circle"
         id="circle1584" />
      <circle
         style="fill:none;stroke:#ff0000;stroke-width:0.1;stroke-miterlimit:4;stroke-dasharray:none;stop-color:#000000"
         id="path1715"
         cx="36.206032"
         cy="165.39555"
         r="1" />
      <circle
         style="fill:none;stroke:#ff0000;stroke-width:0.1;stroke-miterlimit:4;stroke-dasharray:none;stop-color:#000000"
         id="circle1841"
         cx="22.206032"
         cy="165.39555"
         r="1" />
    </g>
    <g
       id="g2995"
       transform="translate(-113.01,-124.00001)"
       style="display:inline">
      <path
         id="path2975"
         style="fill:none;stroke:#ff0000;stroke-width:0.1;stroke-miterlimit:4;stroke-dasharray:none"
         d="m 177.49976,145.99987 v 1.68569 a 17.5,17.5 0 0 0 -5.65134,1.84175 l -0.99373,-1.36788 -4.04524,2.93884 0.98909,1.36116 a 17.5,17.5 0 0 0 -3.48661,4.81469 l -1.60972,-0.52297 -1.54461,4.75527 1.60662,0.52193 a 17.5,17.5 0 0 0 0,5.94331 l -1.60662,0.52193 1.54461,4.75526 1.60972,-0.52296 a 17.5,17.5 0 0 0 3.48661,4.81469 l -0.98909,1.36116 4.04524,2.93884 0.99373,-1.36788 a 17.5,17.5 0 0 0 5.65134,1.84175 v 1.68569 h 5.00021 v -1.68569 a 17.5,17.5 0 0 0 5.65185,-1.84175 l 0.99374,1.36788 4.04471,-2.93884 -0.98908,-1.36167 a 17.5,17.5 0 0 0 3.4866,-4.81418 l 1.60973,0.52296 1.54512,-4.75526 -1.60714,-0.52193 a 17.5,17.5 0 0 0 0,-5.94279 l 1.60714,-0.52245 -1.54512,-4.75527 -1.60973,0.52297 a 17.5,17.5 0 0 0 -3.4866,-4.81418 l 0.98908,-1.36167 -4.04471,-2.93884 -0.99374,1.36788 a 17.5,17.5 0 0 0 -5.65185,-1.84175 v -1.68569 z" />
      <path
         style="fill:none;stroke:#ff0000;stroke-width:0.1;stroke-miterlimit:4;stroke-dasharray:none"
         d="m 216.9311,162.748 0.8145,0.2299 0.8151,0.2879 0.8143,0.3404 0.8122,0.3895 0.8086,0.4364 0.004,0.5679 -0.004,0.5679 -0.8086,0.4364 -0.8122,0.3895 -0.8143,0.3404 -0.8151,0.2879 -0.8145,0.2299 -0.0514,0.7253 -0.0656,0.724 0.767,0.3577 0.7585,0.4148 0.7491,0.4667 0.7391,0.5147 0.7282,0.5605 -0.0872,0.5612 -0.095,0.5599 -0.8682,0.301 -0.8641,0.2542 -0.8583,0.2054 -0.8508,0.1533 -0.8408,0.0964 -0.1671,0.7076 -0.1809,0.7042 0.6998,0.476 0.682,0.5312 0.6646,0.5807 0.647,0.6267 0.6288,0.6699 -0.1761,0.54 -0.1836,0.5374 -0.9052,0.1579 -0.8936,0.1123 -0.8802,0.065 -0.8644,0.0149 -0.8454,-0.0398 -0.2784,0.6717 -0.2915,0.666 0.6143,0.5821 0.588,0.6337 0.5629,0.6798 0.538,0.7224 0.5132,0.7621 -0.2604,0.5048 -0.2674,0.501 -0.9188,0.0106 -0.9001,-0.0325 -0.8793,-0.077 -0.8555,-0.124 -0.828,-0.1749 -0.3826,0.6183 -0.3946,0.6107 0.513,0.6731 0.4788,0.7198 0.4465,0.7613 0.4152,0.7993 0.3843,0.8346 -0.338,0.4564 -0.3444,0.4517 -0.9085,-0.1369 -0.8833,-0.1765 -0.8555,-0.217 -0.8246,-0.2596 -0.7892,-0.3055 -0.4768,0.5489 -0.4875,0.5395 0.3984,0.7467 0.3571,0.7873 0.3186,0.823 0.2816,0.8556 0.2455,0.8854 -0.4069,0.3963 -0.4123,0.3906 -0.8749,-0.2809 -0.8435,-0.3159 -0.8096,-0.3514 -0.7722,-0.3885 -0.7301,-0.4281 -0.5586,0.4653 -0.5677,0.4542 0.2734,0.801 0.2262,0.8343 0.1825,0.8636 0.1407,0.8896 0.1002,0.9134 -0.4651,0.3258 -0.4697,0.3194 -0.8184,-0.4176 -0.782,-0.447 -0.7427,-0.4768 -0.6999,-0.5074 -0.652,-0.5397 -0.626,0.3697 -0.6332,0.3574 0.1414,0.8344 0.0894,0.8598 0.0416,0.8816 -0.004,0.9007 -0.0476,0.9176 -0.5114,0.2471 -0.5148,0.2399 -0.7409,-0.5435 -0.7001,-0.5667 -0.6566,-0.5898 -0.6095,-0.613 -0.5569,-0.6373 -0.6772,0.2645 -0.6823,0.2511 0.006,0.8463 -0.0497,0.8631 -0.1004,0.8768 -0.1482,0.8885 -0.1942,0.8981 -0.5444,0.1617 -0.5466,0.1543 -0.6441,-0.6553 -0.6001,-0.6717 -0.5535,-0.6874 -0.5033,-0.7029 -0.4475,-0.7184 -0.7108,0.1525 -0.7138,0.1384 -0.1301,0.8362 -0.1875,0.8439 -0.2397,0.8494 -0.2889,0.8532 -0.3357,0.8553 -0.5633,0.0724 -0.5643,0.0645 -0.5306,-0.7501 -0.4846,-0.7592 -0.4361,-0.7674 -0.384,-0.7745 -0.3264,-0.7808 -0.7262,0.0364 -0.7267,0.0221 -0.2625,0.8046 -0.3205,0.8029 -0.3729,0.7999 -0.4219,0.7958 -0.4686,0.7904 -0.5676,-0.019 -0.5673,-0.0267 -0.4035,-0.8256 -0.3565,-0.8271 -0.3073,-0.8274 -0.2548,-0.8261 -0.197,-0.823 -0.7226,-0.0806 -0.7208,-0.0947 -0.3882,0.752 -0.4451,0.7411 -0.4964,0.7298 -0.5441,0.7178 -0.5893,0.705 -0.5573,-0.1098 -0.5556,-0.1174 -0.2658,-0.8796 -0.2193,-0.8736 -0.1706,-0.866 -0.1189,-0.8562 -0.0624,-0.844 -0.7003,-0.1954 -0.6964,-0.2092 -0.5038,0.68 -0.5582,0.6602 -0.607,0.6406 -0.6522,0.6212 -0.6948,0.6014 -0.5324,-0.1977 -0.5296,-0.2051 -0.1213,-0.9108 -0.0763,-0.8975 -0.0295,-0.8821 0.02,-0.8642 0.0738,-0.8431 -0.6599,-0.3052 -0.6538,-0.3182 -0.6064,0.5904 -0.6568,0.562 -0.702,0.5351 -0.7434,0.5085 -0.7822,0.4821 -0.4938,-0.2806 -0.4899,-0.2873 0.0264,-0.9185 0.0687,-0.8981 0.1124,-0.8754 0.1583,-0.8498 0.2081,-0.8204 -0.6024,-0.4071 -0.5943,-0.4189 -0.6932,0.4855 -0.7385,0.4494 -0.7787,0.4155 -0.8153,0.3827 -0.8494,0.3503 -0.4425,-0.3561 -0.4374,-0.3622 0.1734,-0.9024 0.2119,-0.8754 0.2513,-0.8461 0.2926,-0.8134 0.337,-0.7763 -0.5293,-0.4985 -0.5194,-0.5088 -0.7621,0.368 -0.801,0.3251 -0.8353,0.2852 -0.8662,0.2469 -0.8946,0.2096 -0.3795,-0.4225 -0.3737,-0.4277 0.3159,-0.8628 0.3495,-0.8301 0.3838,-0.7948 0.4193,-0.756 0.4572,-0.7122 -0.4425,-0.5769 -0.431,-0.5855 -0.8113,0.2409 -0.8428,0.1924 -0.8702,0.1475 -0.8946,0.1048 -0.9166,0.0634 -0.3069,-0.4779 -0.3002,-0.4821 0.4502,-0.801 0.4782,-0.7633 0.5063,-0.7229 0.5351,-0.6789 0.5655,-0.6297 -0.3442,-0.6404 -0.3315,-0.6471 -0.8394,0.1077 -0.8628,0.0547 -0.8826,0.006 -0.8998,-0.04 -0.9149,-0.0845 -0.2263,-0.521 -0.2189,-0.524 0.5728,-0.7184 0.5945,-0.6767 0.6157,-0.6323 0.6371,-0.5843 0.6592,-0.5308 -0.237,-0.6874 -0.2235,-0.6918 -0.8458,-0.0284 -0.8604,-0.0844 -0.8721,-0.1356 -0.8817,-0.1839 -0.8896,-0.2302 -0.1397,-0.5505 -0.1321,-0.5523 0.6807,-0.6172 0.6953,-0.5726 0.7092,-0.5254 0.7225,-0.4745 0.7358,-0.4182 -0.1237,-0.7165 -0.1095,-0.7187 -0.8304,-0.1637 -0.8356,-0.2213 -0.8391,-0.2738 -0.8408,-0.3229 -0.8411,-0.3699 -0.0496,-0.5658 -0.0418,-0.5664 0.7709,-0.5 0.7781,-0.4536 0.7843,-0.4048 0.7893,-0.3525 0.7933,-0.2948 -0.007,-0.727 0.007,-0.727 -0.7933,-0.2948 -0.7893,-0.3525 -0.7843,-0.4048 -0.7781,-0.4536 -0.7709,-0.5 0.0418,-0.5664 0.0496,-0.5658 0.8411,-0.3699 0.8408,-0.3229 0.8391,-0.2738 0.8356,-0.2213 0.8304,-0.1637 0.1095,-0.7187 0.1237,-0.7165 -0.7358,-0.4182 -0.7225,-0.4745 -0.7092,-0.5254 -0.6953,-0.5726 -0.6807,-0.6172 0.1321,-0.5523 0.1397,-0.5505 0.8896,-0.2302 0.8817,-0.1839 0.8721,-0.1356 0.8604,-0.0844 0.8458,-0.0284 0.2235,-0.6918 0.237,-0.6874 -0.6592,-0.5308 -0.6371,-0.5843 -0.6157,-0.6323 -0.5945,-0.6767 -0.5728,-0.7184 0.2189,-0.524 0.2263,-0.521 0.9149,-0.0845 0.8998,-0.04 0.8826,0.006 0.8628,0.0547 0.8394,0.1077 0.3315,-0.6471 0.3442,-0.6404 -0.5655,-0.6297 -0.5351,-0.6789 -0.5063,-0.7229 -0.4782,-0.7633 -0.4502,-0.801 0.3002,-0.4821 0.3069,-0.4779 0.9166,0.0634 0.8946,0.1048 0.8702,0.1475 0.8428,0.1924 0.8113,0.2409 0.431,-0.5855 0.4425,-0.5769 -0.4572,-0.7122 -0.4193,-0.756 -0.3838,-0.7948 -0.3495,-0.8301 -0.3159,-0.8628 0.3737,-0.4277 0.3795,-0.4225 0.8946,0.2096 0.8662,0.2469 0.8353,0.2852 0.801,0.3251 0.7621,0.368 0.5194,-0.5088 0.5293,-0.4985 -0.337,-0.7763 -0.2926,-0.8134 -0.2513,-0.8461 -0.2119,-0.8754 -0.1734,-0.9024 0.4374,-0.3622 0.4425,-0.3561 0.8494,0.3503 0.8153,0.3827 0.7787,0.4155 0.7385,0.4494 0.6932,0.4855 0.5943,-0.4189 0.6024,-0.4071 -0.2081,-0.8204 -0.1583,-0.8498 -0.1124,-0.8754 -0.0687,-0.8981 -0.0264,-0.9185 0.4899,-0.2873 0.4938,-0.2806 0.7822,0.4821 0.7434,0.5085 0.702,0.5351 0.6568,0.562 0.6064,0.5904 0.6538,-0.3182 0.6599,-0.3052 -0.0738,-0.8431 -0.02,-0.8642 0.0295,-0.8821 0.0763,-0.8975 0.1213,-0.9108 0.5296,-0.2051 0.5324,-0.1977 0.6948,0.6014 0.6522,0.6212 0.607,0.6406 0.5582,0.6602 0.5038,0.68 0.6964,-0.2092 0.7003,-0.1954 0.0624,-0.844 0.1189,-0.8562 0.1706,-0.866 0.2193,-0.8736 0.2658,-0.8796 0.5556,-0.1174 0.5573,-0.1098 0.5893,0.705 0.5441,0.7178 0.4964,0.7298 0.4451,0.7411 0.3882,0.752 0.7208,-0.0947 0.7226,-0.0806 0.197,-0.823 0.2548,-0.8261 0.3073,-0.8274 0.3565,-0.8271 0.4035,-0.8256 0.5673,-0.0267 0.5676,-0.019 0.4686,0.7904 0.4219,0.7958 0.3729,0.7999 0.3205,0.8029 0.2625,0.8046 0.7267,0.0221 0.7262,0.0364 0.3264,-0.7808 0.384,-0.7745 0.4361,-0.7674 0.4846,-0.7592 0.5306,-0.7501 0.5643,0.0645 0.5633,0.0724 0.3357,0.8553 0.2889,0.8532 0.2397,0.8494 0.1875,0.8439 0.1301,0.8362 0.7138,0.1384 0.7108,0.1525 0.4475,-0.7184 0.5033,-0.7029 0.5535,-0.6874 0.6001,-0.6717 0.6441,-0.6553 0.5466,0.1543 0.5444,0.1617 0.1942,0.8981 0.1482,0.8885 0.1004,0.8768 0.0497,0.8631 -0.006,0.8463 0.6823,0.2511 0.6772,0.2645 0.5569,-0.6373 0.6095,-0.613 0.6566,-0.5898 0.7001,-0.5667 0.7409,-0.5435 0.5148,0.2399 0.5114,0.2471 0.0476,0.9176 0.004,0.9007 -0.0416,0.8816 -0.0894,0.8598 -0.1414,0.8344 0.6332,0.3574 0.626,0.3697 0.652,-0.5397 0.6999,-0.5074 0.7427,-0.4768 0.782,-0.447 0.8184,-0.4176 0.4697,0.3194 0.4651,0.3258 -0.1002,0.9134 -0.1407,0.8896 -0.1825,0.8636 -0.2262,0.8343 -0.2734,0.801 0.5677,0.4542 0.5586,0.4653 0.7301,-0.4281 0.7722,-0.3885 0.8096,-0.3514 0.8435,-0.3159 0.8749,-0.2809 0.4123,0.3906 0.4069,0.3963 -0.2455,0.8854 -0.2816,0.8556 -0.3186,0.823 -0.3571,0.7873 -0.3984,0.7467 0.4875,0.5395 0.4768,0.5489 0.7892,-0.3055 0.8246,-0.2596 0.8555,-0.217 0.8833,-0.1765 0.9085,-0.1369 0.3444,0.4517 0.338,0.4564 -0.3843,0.8346 -0.4152,0.7993 -0.4465,0.7613 -0.4788,0.7198 -0.513,0.6731 0.3946,0.6107 0.3826,0.6183 0.828,-0.1749 0.8555,-0.124 0.8793,-0.077 0.9001,-0.0325 0.9188,0.0106 0.2674,0.501 0.2604,0.5048 -0.5132,0.7621 -0.538,0.7224 -0.5629,0.6798 -0.588,0.6337 -0.6143,0.5821 0.2915,0.666 0.2784,0.6717 0.8454,-0.0398 0.8644,0.0149 0.8802,0.065 0.8936,0.1123 0.9052,0.1579 0.1836,0.5374 0.1761,0.54 -0.6288,0.6699 -0.647,0.6267 -0.6646,0.5807 -0.682,0.5312 -0.6998,0.476 0.1809,0.7042 0.1671,0.7076 0.8408,0.0964 0.8508,0.1533 0.8583,0.2054 0.8641,0.2542 0.8682,0.301 0.095,0.5599 0.0872,0.5612 -0.7282,0.5605 -0.7391,0.5147 -0.7491,0.4667 -0.7585,0.4148 -0.767,0.3577 0.0656,0.724 z"
         id="path2977" />
      <circle
         style="fill:none;stroke:#0000ff;stroke-width:0.1;stroke-miterlimit:4;stroke-dasharray:none"
         cx="179.99969"
         cy="165"
         r="39"
         inkscape:label="Pitch circle"
         id="circle2979" />
      <path
         inkscape:label="Center cross"
         style="fill:none;stroke:#0000ff;stroke-width:0.1;stroke-miterlimit:4;stroke-dasharray:none"
         d="m 177.9053,165 h 4.1888 m -2.0944,-2.0944 v 4.1888"
         id="path2981" />
      <circle
         style="fill:none;stroke:#0000ff;stroke-width:0.0999999;stroke-miterlimit:4;stroke-dasharray:none;stop-color:#000000"
         id="circle2983"
         cx="180"
         cy="165"
         r="23.5" />
      <circle
         style="fill:none;stroke:#ff0000;stroke-width:0.1;stroke-miterlimit:4;stroke-dasharray:none;stop-color:#000000"
         id="circle2985"
         cx="157"
         cy="165"
         r="1"
         inkscape:transform-center-x="23" />
      <circle
         style="fill:none;stroke:#ff0000;stroke-width:0.1;stroke-miterlimit:4;stroke-dasharray:none;stop-color:#000000"
         id="circle2987"
         cx="189.54738"
         cy="-120.20237"
         r="1"
         inkscape:transform-center-x="7.1073918"
         transform="rotate(72)"
         inkscape:transform-center-y="-21.874305" />
      <circle
         style="fill:none;stroke:#ff0000;stroke-width:0.1;stroke-miterlimit:4;stroke-dasharray:none;stop-color:#000000"
         id="circle2989"
         cx="-71.638496"
         cy="-239.28915"
         r="1"
         inkscape:transform-center-x="-18.607397"
         transform="rotate(144)"
         inkscape:transform-center-y="-13.519059" />
      <circle
         style="fill:none;stroke:#ff0000;stroke-width:0.1;stroke-miterlimit:4;stroke-dasharray:none;stop-color:#000000"
         id="circle2991"
         cx="-265.60764"
         cy="-27.686464"
         r="1"
         inkscape:transform-center-x="-18.607396"
         transform="rotate(-144)"
         inkscape:transform-center-y="13.519072" />
      <circle
         style="fill:none;stroke:#ff0000;stroke-width:0.1;stroke-miterlimit:4;stroke-dasharray:none;stop-color:#000000"
         id="circle2993"
         cx="-124.30128"
         cy="222.17796"
         r="1"
         inkscape:transform-center-x="7.1074069"
         transform="rotate(-72)"
         inkscape:transform-center-y="21.874307" />
    </g>
    <g
       id="g3009"
       transform="translate(-14.201394,-98.396977)"
       style="display:inline">
      <path
         id="path2997"
         style="fill:none;stroke:#ff0000;stroke-width:0.377953;stroke-miterlimit:4;stroke-dasharray:none"
         d="m 222.99219,600.94531 v 12.01953 a 11.338583,11.338583 0 0 0 -3.48828,19.34961 h 3.48828 v 13.98438 h 7.55859 v -13.98438 h 3.49024 a 11.338583,11.338583 0 0 0 -3.49024,-19.37109 v -11.99805 z"
         transform="matrix(0.26458333,0,0,0.26458333,-30.793969,0.39556)" />
      <path
         style="fill:none;stroke:#ff0000;stroke-width:0.1;stroke-miterlimit:4;stroke-dasharray:none"
         d="m 40.854331,163.62546 0.2957,-4e-4 0.3011,0.0374 0.304,0.0637 0.306,0.0863 0.3071,0.1069 0.3076,0.1262 0.3074,0.1446 0.3066,0.1625 0.3052,0.1798 0.3033,0.1967 0.3009,0.2133 0.0051,0.2265 0.0017,0.2266 -0.0017,0.2266 -0.0051,0.2265 -0.3009,0.2133 -0.3033,0.1967 -0.3052,0.1798 -0.3066,0.1625 -0.3074,0.1446 -0.3076,0.1262 -0.3071,0.1069 -0.306,0.0863 -0.304,0.0637 -0.3011,0.0374 -0.2957,-4e-4 -0.7731,-0.1175 -0.0863,0.4921 -0.1085,0.4878 -0.1306,0.4823 -0.1523,0.4758 0.7391,0.2553 0.2621,0.1371 0.2492,0.173 0.2396,0.1977 0.2308,0.2186 0.2223,0.2374 0.2137,0.2546 0.205,0.2709 0.196,0.2864 0.1867,0.301 0.1771,0.3152 0.1672,0.3287 -0.1007,0.2029 -0.1038,0.2014 -0.1068,0.1999 -0.1098,0.1981 -0.3655,0.0492 -0.36,0.0332 -0.3538,0.0174 -0.347,0.001 -0.3394,-0.0148 -0.331,-0.0312 -0.3216,-0.0481 -0.311,-0.0658 -0.2988,-0.0849 -0.2839,-0.1068 -0.2618,-0.1378 -0.6299,-0.4633 -0.3051,0.3957 -0.3228,0.3814 -0.3397,0.3664 -0.3561,0.3506 0.5359,0.5695 0.1683,0.2432 0.1403,0.269 0.1203,0.2864 0.1028,0.3008 0.0865,0.3135 0.0709,0.3248 0.0556,0.3352 0.0404,0.3446 0.0255,0.3533 0.0104,0.3614 -0.0048,0.3688 -0.1835,0.1329 -0.1854,0.1301 -0.1874,0.1272 -0.1894,0.1245 -0.3464,-0.1264 -0.3342,-0.1378 -0.3214,-0.1491 -0.3079,-0.1601 -0.2936,-0.1708 -0.2786,-0.1814 -0.2624,-0.1921 -0.2449,-0.2028 -0.2251,-0.214 -0.2018,-0.2265 -0.1677,-0.2436 -0.3425,-0.703 -0.454,0.2085 -0.463,0.1878 -0.4711,0.1665 -0.4782,0.145 0.2098,0.7533 0.036,0.2936 -8e-4,0.3033 -0.0266,0.3095 -0.0488,0.3141 -0.069,0.3178 -0.0882,0.3205 -0.1065,0.3226 -0.1243,0.324 -0.1417,0.3247 -0.1588,0.3248 -0.1755,0.3243 -0.2243,0.0324 -0.2246,0.029 -0.2252,0.0256 -0.2254,0.0222 -0.2481,-0.2728 -0.2318,-0.2774 -0.2153,-0.2814 -0.1983,-0.2848 -0.1806,-0.2877 -0.1623,-0.2901 -0.1431,-0.292 -0.1226,-0.2934 -0.0998,-0.2941 -0.0735,-0.2943 -0.0352,-0.2937 0.0234,-0.7816 -0.4989,-0.0264 -0.4973,-0.0489 -0.4945,-0.0715 -0.4908,-0.0938 -0.1643,0.7645 -0.1045,0.2767 -0.1417,0.2682 -0.1674,0.2617 -0.1892,0.2555 -0.2088,0.2492 -0.227,0.2429 -0.2443,0.2361 -0.2606,0.2291 -0.2764,0.2217 -0.2915,0.2138 -0.3061,0.2056 -0.2136,-0.0755 -0.2125,-0.0788 -0.2112,-0.0819 -0.21,-0.0851 -0.0928,-0.3569 -0.0764,-0.3534 -0.0599,-0.3492 -0.0431,-0.3442 -0.0263,-0.3388 -0.0089,-0.3323 0.009,-0.3251 0.0279,-0.3167 0.0482,-0.3068 0.0718,-0.2947 0.1052,-0.2764 0.384,-0.6813 -0.4296,-0.2552 -0.4175,-0.2744 -0.4047,-0.2931 -0.3909,-0.3112 -0.5008,0.6007 -0.2211,0.1964 -0.2501,0.1716 -0.2698,0.1539 -0.2863,0.1383 -0.3007,0.1237 -0.3139,0.1095 -0.326,0.0956 -0.3373,0.0817 -0.3477,0.0679 -0.3575,0.0538 -0.3666,0.0398 -0.154,-0.1661 -0.1516,-0.1685 -0.1489,-0.1707 -0.1464,-0.1729 0.0837,-0.3592 0.0966,-0.3484 0.1092,-0.337 0.1218,-0.3249 0.1342,-0.3121 0.1465,-0.2984 0.1591,-0.2837 0.1718,-0.2674 0.1853,-0.2493 0.2005,-0.2276 0.2217,-0.1959 0.6566,-0.4247 -0.2618,-0.4256 -0.2422,-0.437 -0.2221,-0.4476 -0.2016,-0.4572 -0.7225,0.299 -0.2871,0.0712 -0.3012,0.0357 -0.3104,0.0109 -0.3178,-0.0105 -0.3238,-0.0303 -0.3288,-0.0489 -0.3331,-0.0668 -0.3366,-0.0844 -0.3394,-0.1015 -0.3415,-0.1184 -0.3432,-0.1352 -0.0591,-0.2187 -0.0559,-0.2196 -0.0526,-0.2203 -0.0492,-0.2212 0.241,-0.2791 0.2474,-0.2636 0.2534,-0.2477 0.2588,-0.2311 0.2638,-0.214 0.2685,-0.1961 0.2726,-0.1773 0.2765,-0.157 0.2799,-0.1346 0.2833,-0.1083 0.2873,-0.0704 0.7788,-0.071 -0.0341,-0.4985 -0.0113,-0.4995 0.0113,-0.4995 0.0341,-0.4985 -0.7788,-0.071 -0.2873,-0.0704 -0.2833,-0.1083 -0.2799,-0.1346 -0.2765,-0.157 -0.2726,-0.1773 -0.2685,-0.1961 -0.2638,-0.214 -0.2588,-0.2311 -0.2534,-0.2477 -0.2474,-0.2636 -0.241,-0.2791 0.0492,-0.2212 0.0526,-0.2203 0.0559,-0.2196 0.0591,-0.2187 0.3432,-0.1352 0.3415,-0.1184 0.3394,-0.1015 0.3366,-0.0844 0.3331,-0.0668 0.3288,-0.0489 0.3238,-0.0303 0.3178,-0.0105 0.3104,0.0109 0.3012,0.0357 0.2871,0.0712 0.7225,0.299 0.2016,-0.4572 0.2221,-0.4476 0.2422,-0.437 0.2618,-0.4256 -0.6566,-0.4247 -0.2217,-0.1959 -0.2005,-0.2276 -0.1853,-0.2493 -0.1718,-0.2674 -0.1591,-0.2837 -0.1465,-0.2984 -0.1342,-0.3121 -0.1218,-0.3249 -0.1092,-0.337 -0.0966,-0.3484 -0.0837,-0.3592 0.1464,-0.1729 0.1489,-0.1707 0.1516,-0.1685 0.154,-0.1661 0.3666,0.0398 0.3575,0.0538 0.3477,0.0679 0.3373,0.0817 0.326,0.0956 0.3139,0.1095 0.3007,0.1237 0.2863,0.1383 0.2698,0.1539 0.2501,0.1716 0.2211,0.1964 0.5008,0.6007 0.3909,-0.3112 0.4047,-0.2931 0.4175,-0.2744 0.4296,-0.2552 -0.384,-0.6813 -0.1052,-0.2764 -0.0718,-0.2947 -0.0482,-0.3068 -0.0279,-0.3167 -0.009,-0.3251 0.0089,-0.3323 0.0263,-0.3388 0.0431,-0.3442 0.0599,-0.3492 0.0764,-0.3534 0.0928,-0.3569 0.21,-0.0851 0.2112,-0.0819 0.2125,-0.0788 0.2136,-0.0755 0.3061,0.2056 0.2915,0.2138 0.2764,0.2217 0.2606,0.2291 0.2443,0.2361 0.227,0.2429 0.2088,0.2492 0.1892,0.2555 0.1674,0.2617 0.1417,0.2682 0.1045,0.2767 0.1643,0.7645 0.4908,-0.0938 0.4945,-0.0715 0.4973,-0.0489 0.4989,-0.0264 -0.0234,-0.7816 0.0352,-0.2937 0.0735,-0.2943 0.0998,-0.2941 0.1226,-0.2934 0.1431,-0.292 0.1623,-0.2901 0.1806,-0.2877 0.1983,-0.2848 0.2153,-0.2814 0.2318,-0.2774 0.2481,-0.2728 0.2254,0.0222 0.2252,0.0256 0.2246,0.029 0.2243,0.0324 0.1755,0.3243 0.1588,0.3248 0.1417,0.3247 0.1243,0.324 0.1065,0.3226 0.0882,0.3205 0.069,0.3178 0.0488,0.3141 0.0266,0.3095 8e-4,0.3033 -0.036,0.2936 -0.2098,0.7533 0.4782,0.145 0.4711,0.1665 0.463,0.1878 0.454,0.2085 0.3425,-0.703 0.1677,-0.2436 0.2018,-0.2265 0.2251,-0.214 0.2449,-0.2028 0.2624,-0.1921 0.2786,-0.1814 0.2936,-0.1708 0.3079,-0.1601 0.3214,-0.1491 0.3342,-0.1378 0.3464,-0.1264 0.1894,0.1245 0.1874,0.1272 0.1854,0.1301 0.1835,0.1329 0.0048,0.3688 -0.0104,0.3614 -0.0255,0.3533 -0.0404,0.3446 -0.0556,0.3352 -0.0709,0.3248 -0.0865,0.3135 -0.1028,0.3008 -0.1203,0.2864 -0.1403,0.269 -0.1683,0.2432 -0.5359,0.5695 0.3561,0.3506 0.3397,0.3664 0.3228,0.3814 0.3051,0.3957 0.6299,-0.4633 0.2618,-0.1378 0.2839,-0.1068 0.2988,-0.0849 0.311,-0.0658 0.3216,-0.0481 0.331,-0.0312 0.3394,-0.0148 0.347,10e-4 0.3538,0.0174 0.36,0.0332 0.3655,0.0492 0.1098,0.1981 0.1068,0.1999 0.1038,0.2014 0.1007,0.2029 -0.1672,0.3287 -0.1771,0.3152 -0.1867,0.301 -0.196,0.2864 -0.205,0.2709 -0.2137,0.2546 -0.2223,0.2374 -0.2308,0.2186 -0.2396,0.1977 -0.2492,0.173 -0.2621,0.1371 -0.7391,0.2553 0.1523,0.4758 0.1306,0.4823 0.1085,0.4878 0.0863,0.4921 z"
         id="path2999" />
      <path
         inkscape:label="Center cross"
         style="fill:none;stroke:#0000ff;stroke-width:0.1;stroke-miterlimit:4;stroke-dasharray:none"
         d="m 27.111636,165.39556 h 4.18879 m -2.094395,-2.0944 v 4.1888"
         id="path3001" />
      <circle
         style="fill:none;stroke:#0000ff;stroke-width:0.1;stroke-miterlimit:4;stroke-dasharray:none"
         cx="29.206032"
         cy="165.39555"
         r="13"
         inkscape:label="Pitch circle"
         id="circle3003" />
      <circle
         style="fill:none;stroke:#ff0000;stroke-width:0.1;stroke-miterlimit:4;stroke-dasharray:none;stop-color:#000000"
         id="circle3005"
         cx="36.206032"
         cy="165.39555"
         r="1" />
      <circle
         style="fill:none;stroke:#ff0000;stroke-width:0.1;stroke-miterlimit:4;stroke-dasharray:none;stop-color:#000000"
         id="circle3007"
         cx="22.206032"
         cy="165.39555"
         r="1" />
    </g>
    <g
       id="g4071"
       transform="translate(122.79706,-124.39549)"
       style="display:inline">
      <path
         id="path4059"
         style="fill:none;stroke:#ff0000;stroke-width:0.377953;stroke-miterlimit:4;stroke-dasharray:none"
         d="m 113.38672,612.2832 a 11.338583,11.338583 0 0 0 -7.26953,20.03125 h 14.53711 a 11.338583,11.338583 0 0 0 -7.26758,-20.03125 z"
         transform="matrix(0.26458333,0,0,0.26458333,-0.793969,0.39556)" />
      <circle
         style="fill:none;stroke:#ff0000;stroke-width:0.1;stroke-miterlimit:4;stroke-dasharray:none;stop-color:#000000"
         id="circle4061"
         cx="36.206032"
         cy="165.39555"
         r="1" />
      <path
         style="fill:none;stroke:#ff0000;stroke-width:0.1;stroke-miterlimit:4;stroke-dasharray:none"
         d="m 40.854331,163.62546 0.2957,-4e-4 0.3011,0.0374 0.304,0.0637 0.306,0.0863 0.3071,0.1069 0.3076,0.1262 0.3074,0.1446 0.3066,0.1625 0.3052,0.1798 0.3033,0.1967 0.3009,0.2133 0.0051,0.2265 0.0017,0.2266 -0.0017,0.2266 -0.0051,0.2265 -0.3009,0.2133 -0.3033,0.1967 -0.3052,0.1798 -0.3066,0.1625 -0.3074,0.1446 -0.3076,0.1262 -0.3071,0.1069 -0.306,0.0863 -0.304,0.0637 -0.3011,0.0374 -0.2957,-4e-4 -0.7731,-0.1175 -0.0863,0.4921 -0.1085,0.4878 -0.1306,0.4823 -0.1523,0.4758 0.7391,0.2553 0.2621,0.1371 0.2492,0.173 0.2396,0.1977 0.2308,0.2186 0.2223,0.2374 0.2137,0.2546 0.205,0.2709 0.196,0.2864 0.1867,0.301 0.1771,0.3152 0.1672,0.3287 -0.1007,0.2029 -0.1038,0.2014 -0.1068,0.1999 -0.1098,0.1981 -0.3655,0.0492 -0.36,0.0332 -0.3538,0.0174 -0.347,0.001 -0.3394,-0.0148 -0.331,-0.0312 -0.3216,-0.0481 -0.311,-0.0658 -0.2988,-0.0849 -0.2839,-0.1068 -0.2618,-0.1378 -0.6299,-0.4633 -0.3051,0.3957 -0.3228,0.3814 -0.3397,0.3664 -0.3561,0.3506 0.5359,0.5695 0.1683,0.2432 0.1403,0.269 0.1203,0.2864 0.1028,0.3008 0.0865,0.3135 0.0709,0.3248 0.0556,0.3352 0.0404,0.3446 0.0255,0.3533 0.0104,0.3614 -0.0048,0.3688 -0.1835,0.1329 -0.1854,0.1301 -0.1874,0.1272 -0.1894,0.1245 -0.3464,-0.1264 -0.3342,-0.1378 -0.3214,-0.1491 -0.3079,-0.1601 -0.2936,-0.1708 -0.2786,-0.1814 -0.2624,-0.1921 -0.2449,-0.2028 -0.2251,-0.214 -0.2018,-0.2265 -0.1677,-0.2436 -0.3425,-0.703 -0.454,0.2085 -0.463,0.1878 -0.4711,0.1665 -0.4782,0.145 0.2098,0.7533 0.036,0.2936 -8e-4,0.3033 -0.0266,0.3095 -0.0488,0.3141 -0.069,0.3178 -0.0882,0.3205 -0.1065,0.3226 -0.1243,0.324 -0.1417,0.3247 -0.1588,0.3248 -0.1755,0.3243 -0.2243,0.0324 -0.2246,0.029 -0.2252,0.0256 -0.2254,0.0222 -0.2481,-0.2728 -0.2318,-0.2774 -0.2153,-0.2814 -0.1983,-0.2848 -0.1806,-0.2877 -0.1623,-0.2901 -0.1431,-0.292 -0.1226,-0.2934 -0.0998,-0.2941 -0.0735,-0.2943 -0.0352,-0.2937 0.0234,-0.7816 -0.4989,-0.0264 -0.4973,-0.0489 -0.4945,-0.0715 -0.4908,-0.0938 -0.1643,0.7645 -0.1045,0.2767 -0.1417,0.2682 -0.1674,0.2617 -0.1892,0.2555 -0.2088,0.2492 -0.227,0.2429 -0.2443,0.2361 -0.2606,0.2291 -0.2764,0.2217 -0.2915,0.2138 -0.3061,0.2056 -0.2136,-0.0755 -0.2125,-0.0788 -0.2112,-0.0819 -0.21,-0.0851 -0.0928,-0.3569 -0.0764,-0.3534 -0.0599,-0.3492 -0.0431,-0.3442 -0.0263,-0.3388 -0.0089,-0.3323 0.009,-0.3251 0.0279,-0.3167 0.0482,-0.3068 0.0718,-0.2947 0.1052,-0.2764 0.384,-0.6813 -0.4296,-0.2552 -0.4175,-0.2744 -0.4047,-0.2931 -0.3909,-0.3112 -0.5008,0.6007 -0.2211,0.1964 -0.2501,0.1716 -0.2698,0.1539 -0.2863,0.1383 -0.3007,0.1237 -0.3139,0.1095 -0.326,0.0956 -0.3373,0.0817 -0.3477,0.0679 -0.3575,0.0538 -0.3666,0.0398 -0.154,-0.1661 -0.1516,-0.1685 -0.1489,-0.1707 -0.1464,-0.1729 0.0837,-0.3592 0.0966,-0.3484 0.1092,-0.337 0.1218,-0.3249 0.1342,-0.3121 0.1465,-0.2984 0.1591,-0.2837 0.1718,-0.2674 0.1853,-0.2493 0.2005,-0.2276 0.2217,-0.1959 0.6566,-0.4247 -0.2618,-0.4256 -0.2422,-0.437 -0.2221,-0.4476 -0.2016,-0.4572 -0.7225,0.299 -0.2871,0.0712 -0.3012,0.0357 -0.3104,0.0109 -0.3178,-0.0105 -0.3238,-0.0303 -0.3288,-0.0489 -0.3331,-0.0668 -0.3366,-0.0844 -0.3394,-0.1015 -0.3415,-0.1184 -0.3432,-0.1352 -0.0591,-0.2187 -0.0559,-0.2196 -0.0526,-0.2203 -0.0492,-0.2212 0.241,-0.2791 0.2474,-0.2636 0.2534,-0.2477 0.2588,-0.2311 0.2638,-0.214 0.2685,-0.1961 0.2726,-0.1773 0.2765,-0.157 0.2799,-0.1346 0.2833,-0.1083 0.2873,-0.0704 0.7788,-0.071 -0.0341,-0.4985 -0.0113,-0.4995 0.0113,-0.4995 0.0341,-0.4985 -0.7788,-0.071 -0.2873,-0.0704 -0.2833,-0.1083 -0.2799,-0.1346 -0.2765,-0.157 -0.2726,-0.1773 -0.2685,-0.1961 -0.2638,-0.214 -0.2588,-0.2311 -0.2534,-0.2477 -0.2474,-0.2636 -0.241,-0.2791 0.0492,-0.2212 0.0526,-0.2203 0.0559,-0.2196 0.0591,-0.2187 0.3432,-0.1352 0.3415,-0.1184 0.3394,-0.1015 0.3366,-0.0844 0.3331,-0.0668 0.3288,-0.0489 0.3238,-0.0303 0.3178,-0.0105 0.3104,0.0109 0.3012,0.0357 0.2871,0.0712 0.7225,0.299 0.2016,-0.4572 0.2221,-0.4476 0.2422,-0.437 0.2618,-0.4256 -0.6566,-0.4247 -0.2217,-0.1959 -0.2005,-0.2276 -0.1853,-0.2493 -0.1718,-0.2674 -0.1591,-0.2837 -0.1465,-0.2984 -0.1342,-0.3121 -0.1218,-0.3249 -0.1092,-0.337 -0.0966,-0.3484 -0.0837,-0.3592 0.1464,-0.1729 0.1489,-0.1707 0.1516,-0.1685 0.154,-0.1661 0.3666,0.0398 0.3575,0.0538 0.3477,0.0679 0.3373,0.0817 0.326,0.0956 0.3139,0.1095 0.3007,0.1237 0.2863,0.1383 0.2698,0.1539 0.2501,0.1716 0.2211,0.1964 0.5008,0.6007 0.3909,-0.3112 0.4047,-0.2931 0.4175,-0.2744 0.4296,-0.2552 -0.384,-0.6813 -0.1052,-0.2764 -0.0718,-0.2947 -0.0482,-0.3068 -0.0279,-0.3167 -0.009,-0.3251 0.0089,-0.3323 0.0263,-0.3388 0.0431,-0.3442 0.0599,-0.3492 0.0764,-0.3534 0.0928,-0.3569 0.21,-0.0851 0.2112,-0.0819 0.2125,-0.0788 0.2136,-0.0755 0.3061,0.2056 0.2915,0.2138 0.2764,0.2217 0.2606,0.2291 0.2443,0.2361 0.227,0.2429 0.2088,0.2492 0.1892,0.2555 0.1674,0.2617 0.1417,0.2682 0.1045,0.2767 0.1643,0.7645 0.4908,-0.0938 0.4945,-0.0715 0.4973,-0.0489 0.4989,-0.0264 -0.0234,-0.7816 0.0352,-0.2937 0.0735,-0.2943 0.0998,-0.2941 0.1226,-0.2934 0.1431,-0.292 0.1623,-0.2901 0.1806,-0.2877 0.1983,-0.2848 0.2153,-0.2814 0.2318,-0.2774 0.2481,-0.2728 0.2254,0.0222 0.2252,0.0256 0.2246,0.029 0.2243,0.0324 0.1755,0.3243 0.1588,0.3248 0.1417,0.3247 0.1243,0.324 0.1065,0.3226 0.0882,0.3205 0.069,0.3178 0.0488,0.3141 0.0266,0.3095 8e-4,0.3033 -0.036,0.2936 -0.2098,0.7533 0.4782,0.145 0.4711,0.1665 0.463,0.1878 0.454,0.2085 0.3425,-0.703 0.1677,-0.2436 0.2018,-0.2265 0.2251,-0.214 0.2449,-0.2028 0.2624,-0.1921 0.2786,-0.1814 0.2936,-0.1708 0.3079,-0.1601 0.3214,-0.1491 0.3342,-0.1378 0.3464,-0.1264 0.1894,0.1245 0.1874,0.1272 0.1854,0.1301 0.1835,0.1329 0.0048,0.3688 -0.0104,0.3614 -0.0255,0.3533 -0.0404,0.3446 -0.0556,0.3352 -0.0709,0.3248 -0.0865,0.3135 -0.1028,0.3008 -0.1203,0.2864 -0.1403,0.269 -0.1683,0.2432 -0.5359,0.5695 0.3561,0.3506 0.3397,0.3664 0.3228,0.3814 0.3051,0.3957 0.6299,-0.4633 0.2618,-0.1378 0.2839,-0.1068 0.2988,-0.0849 0.311,-0.0658 0.3216,-0.0481 0.331,-0.0312 0.3394,-0.0148 0.347,10e-4 0.3538,0.0174 0.36,0.0332 0.3655,0.0492 0.1098,0.1981 0.1068,0.1999 0.1038,0.2014 0.1007,0.2029 -0.1672,0.3287 -0.1771,0.3152 -0.1867,0.301 -0.196,0.2864 -0.205,0.2709 -0.2137,0.2546 -0.2223,0.2374 -0.2308,0.2186 -0.2396,0.1977 -0.2492,0.173 -0.2621,0.1371 -0.7391,0.2553 0.1523,0.4758 0.1306,0.4823 0.1085,0.4878 0.0863,0.4921 z"
         id="path4063" />
      <path
         inkscape:label="Center cross"
         style="fill:none;stroke:#0000ff;stroke-width:0.1;stroke-miterlimit:4;stroke-dasharray:none"
         d="m 27.111636,165.39556 h 4.18879 m -2.094395,-2.0944 v 4.1888"
         id="path4065" />
      <circle
         style="fill:none;stroke:#0000ff;stroke-width:0.1;stroke-miterlimit:4;stroke-dasharray:none"
         cx="29.206032"
         cy="165.39555"
         r="13"
         inkscape:label="Pitch circle"
         id="circle4067" />
      <circle
         style="fill:none;stroke:#ff0000;stroke-width:0.1;stroke-miterlimit:4;stroke-dasharray:none;stop-color:#000000"
         id="circle4069"
         cx="22.206032"
         cy="165.39555"
         r="1" />
    </g>
    <g
       id="g4093"
       transform="translate(-28.01,-124.00001)"
       style="display:inline">
      <path
         id="path4073"
         style="fill:none;stroke:#ff0000;stroke-width:0.1;stroke-miterlimit:4;stroke-dasharray:none"
         d="m 177.49976,145.99987 v 1.68569 a 17.5,17.5 0 0 0 -5.65134,1.84175 l -0.99373,-1.36788 -4.04524,2.93884 0.98909,1.36116 a 17.5,17.5 0 0 0 -3.48661,4.81469 l -1.60972,-0.52297 -1.54461,4.75527 1.60662,0.52193 a 17.5,17.5 0 0 0 0,5.94331 l -1.60662,0.52193 1.54461,4.75526 1.60972,-0.52296 a 17.5,17.5 0 0 0 3.48661,4.81469 l -0.98909,1.36116 4.04524,2.93884 0.99373,-1.36788 a 17.5,17.5 0 0 0 5.65134,1.84175 v 1.68569 h 5.00021 v -1.68569 a 17.5,17.5 0 0 0 5.65185,-1.84175 l 0.99374,1.36788 4.04471,-2.93884 -0.98908,-1.36167 a 17.5,17.5 0 0 0 3.4866,-4.81418 l 1.60973,0.52296 1.54512,-4.75526 -1.60714,-0.52193 a 17.5,17.5 0 0 0 0,-5.94279 l 1.60714,-0.52245 -1.54512,-4.75527 -1.60973,0.52297 a 17.5,17.5 0 0 0 -3.4866,-4.81418 l 0.98908,-1.36167 -4.04471,-2.93884 -0.99374,1.36788 a 17.5,17.5 0 0 0 -5.65185,-1.84175 v -1.68569 z" />
      <path
         style="fill:none;stroke:#ff0000;stroke-width:0.1;stroke-miterlimit:4;stroke-dasharray:none"
         d="m 216.9311,162.748 0.8145,0.2299 0.8151,0.2879 0.8143,0.3404 0.8122,0.3895 0.8086,0.4364 0.004,0.5679 -0.004,0.5679 -0.8086,0.4364 -0.8122,0.3895 -0.8143,0.3404 -0.8151,0.2879 -0.8145,0.2299 -0.0514,0.7253 -0.0656,0.724 0.767,0.3577 0.7585,0.4148 0.7491,0.4667 0.7391,0.5147 0.7282,0.5605 -0.0872,0.5612 -0.095,0.5599 -0.8682,0.301 -0.8641,0.2542 -0.8583,0.2054 -0.8508,0.1533 -0.8408,0.0964 -0.1671,0.7076 -0.1809,0.7042 0.6998,0.476 0.682,0.5312 0.6646,0.5807 0.647,0.6267 0.6288,0.6699 -0.1761,0.54 -0.1836,0.5374 -0.9052,0.1579 -0.8936,0.1123 -0.8802,0.065 -0.8644,0.0149 -0.8454,-0.0398 -0.2784,0.6717 -0.2915,0.666 0.6143,0.5821 0.588,0.6337 0.5629,0.6798 0.538,0.7224 0.5132,0.7621 -0.2604,0.5048 -0.2674,0.501 -0.9188,0.0106 -0.9001,-0.0325 -0.8793,-0.077 -0.8555,-0.124 -0.828,-0.1749 -0.3826,0.6183 -0.3946,0.6107 0.513,0.6731 0.4788,0.7198 0.4465,0.7613 0.4152,0.7993 0.3843,0.8346 -0.338,0.4564 -0.3444,0.4517 -0.9085,-0.1369 -0.8833,-0.1765 -0.8555,-0.217 -0.8246,-0.2596 -0.7892,-0.3055 -0.4768,0.5489 -0.4875,0.5395 0.3984,0.7467 0.3571,0.7873 0.3186,0.823 0.2816,0.8556 0.2455,0.8854 -0.4069,0.3963 -0.4123,0.3906 -0.8749,-0.2809 -0.8435,-0.3159 -0.8096,-0.3514 -0.7722,-0.3885 -0.7301,-0.4281 -0.5586,0.4653 -0.5677,0.4542 0.2734,0.801 0.2262,0.8343 0.1825,0.8636 0.1407,0.8896 0.1002,0.9134 -0.4651,0.3258 -0.4697,0.3194 -0.8184,-0.4176 -0.782,-0.447 -0.7427,-0.4768 -0.6999,-0.5074 -0.652,-0.5397 -0.626,0.3697 -0.6332,0.3574 0.1414,0.8344 0.0894,0.8598 0.0416,0.8816 -0.004,0.9007 -0.0476,0.9176 -0.5114,0.2471 -0.5148,0.2399 -0.7409,-0.5435 -0.7001,-0.5667 -0.6566,-0.5898 -0.6095,-0.613 -0.5569,-0.6373 -0.6772,0.2645 -0.6823,0.2511 0.006,0.8463 -0.0497,0.8631 -0.1004,0.8768 -0.1482,0.8885 -0.1942,0.8981 -0.5444,0.1617 -0.5466,0.1543 -0.6441,-0.6553 -0.6001,-0.6717 -0.5535,-0.6874 -0.5033,-0.7029 -0.4475,-0.7184 -0.7108,0.1525 -0.7138,0.1384 -0.1301,0.8362 -0.1875,0.8439 -0.2397,0.8494 -0.2889,0.8532 -0.3357,0.8553 -0.5633,0.0724 -0.5643,0.0645 -0.5306,-0.7501 -0.4846,-0.7592 -0.4361,-0.7674 -0.384,-0.7745 -0.3264,-0.7808 -0.7262,0.0364 -0.7267,0.0221 -0.2625,0.8046 -0.3205,0.8029 -0.3729,0.7999 -0.4219,0.7958 -0.4686,0.7904 -0.5676,-0.019 -0.5673,-0.0267 -0.4035,-0.8256 -0.3565,-0.8271 -0.3073,-0.8274 -0.2548,-0.8261 -0.197,-0.823 -0.7226,-0.0806 -0.7208,-0.0947 -0.3882,0.752 -0.4451,0.7411 -0.4964,0.7298 -0.5441,0.7178 -0.5893,0.705 -0.5573,-0.1098 -0.5556,-0.1174 -0.2658,-0.8796 -0.2193,-0.8736 -0.1706,-0.866 -0.1189,-0.8562 -0.0624,-0.844 -0.7003,-0.1954 -0.6964,-0.2092 -0.5038,0.68 -0.5582,0.6602 -0.607,0.6406 -0.6522,0.6212 -0.6948,0.6014 -0.5324,-0.1977 -0.5296,-0.2051 -0.1213,-0.9108 -0.0763,-0.8975 -0.0295,-0.8821 0.02,-0.8642 0.0738,-0.8431 -0.6599,-0.3052 -0.6538,-0.3182 -0.6064,0.5904 -0.6568,0.562 -0.702,0.5351 -0.7434,0.5085 -0.7822,0.4821 -0.4938,-0.2806 -0.4899,-0.2873 0.0264,-0.9185 0.0687,-0.8981 0.1124,-0.8754 0.1583,-0.8498 0.2081,-0.8204 -0.6024,-0.4071 -0.5943,-0.4189 -0.6932,0.4855 -0.7385,0.4494 -0.7787,0.4155 -0.8153,0.3827 -0.8494,0.3503 -0.4425,-0.3561 -0.4374,-0.3622 0.1734,-0.9024 0.2119,-0.8754 0.2513,-0.8461 0.2926,-0.8134 0.337,-0.7763 -0.5293,-0.4985 -0.5194,-0.5088 -0.7621,0.368 -0.801,0.3251 -0.8353,0.2852 -0.8662,0.2469 -0.8946,0.2096 -0.3795,-0.4225 -0.3737,-0.4277 0.3159,-0.8628 0.3495,-0.8301 0.3838,-0.7948 0.4193,-0.756 0.4572,-0.7122 -0.4425,-0.5769 -0.431,-0.5855 -0.8113,0.2409 -0.8428,0.1924 -0.8702,0.1475 -0.8946,0.1048 -0.9166,0.0634 -0.3069,-0.4779 -0.3002,-0.4821 0.4502,-0.801 0.4782,-0.7633 0.5063,-0.7229 0.5351,-0.6789 0.5655,-0.6297 -0.3442,-0.6404 -0.3315,-0.6471 -0.8394,0.1077 -0.8628,0.0547 -0.8826,0.006 -0.8998,-0.04 -0.9149,-0.0845 -0.2263,-0.521 -0.2189,-0.524 0.5728,-0.7184 0.5945,-0.6767 0.6157,-0.6323 0.6371,-0.5843 0.6592,-0.5308 -0.237,-0.6874 -0.2235,-0.6918 -0.8458,-0.0284 -0.8604,-0.0844 -0.8721,-0.1356 -0.8817,-0.1839 -0.8896,-0.2302 -0.1397,-0.5505 -0.1321,-0.5523 0.6807,-0.6172 0.6953,-0.5726 0.7092,-0.5254 0.7225,-0.4745 0.7358,-0.4182 -0.1237,-0.7165 -0.1095,-0.7187 -0.8304,-0.1637 -0.8356,-0.2213 -0.8391,-0.2738 -0.8408,-0.3229 -0.8411,-0.3699 -0.0496,-0.5658 -0.0418,-0.5664 0.7709,-0.5 0.7781,-0.4536 0.7843,-0.4048 0.7893,-0.3525 0.7933,-0.2948 -0.007,-0.727 0.007,-0.727 -0.7933,-0.2948 -0.7893,-0.3525 -0.7843,-0.4048 -0.7781,-0.4536 -0.7709,-0.5 0.0418,-0.5664 0.0496,-0.5658 0.8411,-0.3699 0.8408,-0.3229 0.8391,-0.2738 0.8356,-0.2213 0.8304,-0.1637 0.1095,-0.7187 0.1237,-0.7165 -0.7358,-0.4182 -0.7225,-0.4745 -0.7092,-0.5254 -0.6953,-0.5726 -0.6807,-0.6172 0.1321,-0.5523 0.1397,-0.5505 0.8896,-0.2302 0.8817,-0.1839 0.8721,-0.1356 0.8604,-0.0844 0.8458,-0.0284 0.2235,-0.6918 0.237,-0.6874 -0.6592,-0.5308 -0.6371,-0.5843 -0.6157,-0.6323 -0.5945,-0.6767 -0.5728,-0.7184 0.2189,-0.524 0.2263,-0.521 0.9149,-0.0845 0.8998,-0.04 0.8826,0.006 0.8628,0.0547 0.8394,0.1077 0.3315,-0.6471 0.3442,-0.6404 -0.5655,-0.6297 -0.5351,-0.6789 -0.5063,-0.7229 -0.4782,-0.7633 -0.4502,-0.801 0.3002,-0.4821 0.3069,-0.4779 0.9166,0.0634 0.8946,0.1048 0.8702,0.1475 0.8428,0.1924 0.8113,0.2409 0.431,-0.5855 0.4425,-0.5769 -0.4572,-0.7122 -0.4193,-0.756 -0.3838,-0.7948 -0.3495,-0.8301 -0.3159,-0.8628 0.3737,-0.4277 0.3795,-0.4225 0.8946,0.2096 0.8662,0.2469 0.8353,0.2852 0.801,0.3251 0.7621,0.368 0.5194,-0.5088 0.5293,-0.4985 -0.337,-0.7763 -0.2926,-0.8134 -0.2513,-0.8461 -0.2119,-0.8754 -0.1734,-0.9024 0.4374,-0.3622 0.4425,-0.3561 0.8494,0.3503 0.8153,0.3827 0.7787,0.4155 0.7385,0.4494 0.6932,0.4855 0.5943,-0.4189 0.6024,-0.4071 -0.2081,-0.8204 -0.1583,-0.8498 -0.1124,-0.8754 -0.0687,-0.8981 -0.0264,-0.9185 0.4899,-0.2873 0.4938,-0.2806 0.7822,0.4821 0.7434,0.5085 0.702,0.5351 0.6568,0.562 0.6064,0.5904 0.6538,-0.3182 0.6599,-0.3052 -0.0738,-0.8431 -0.02,-0.8642 0.0295,-0.8821 0.0763,-0.8975 0.1213,-0.9108 0.5296,-0.2051 0.5324,-0.1977 0.6948,0.6014 0.6522,0.6212 0.607,0.6406 0.5582,0.6602 0.5038,0.68 0.6964,-0.2092 0.7003,-0.1954 0.0624,-0.844 0.1189,-0.8562 0.1706,-0.866 0.2193,-0.8736 0.2658,-0.8796 0.5556,-0.1174 0.5573,-0.1098 0.5893,0.705 0.5441,0.7178 0.4964,0.7298 0.4451,0.7411 0.3882,0.752 0.7208,-0.0947 0.7226,-0.0806 0.197,-0.823 0.2548,-0.8261 0.3073,-0.8274 0.3565,-0.8271 0.4035,-0.8256 0.5673,-0.0267 0.5676,-0.019 0.4686,0.7904 0.4219,0.7958 0.3729,0.7999 0.3205,0.8029 0.2625,0.8046 0.7267,0.0221 0.7262,0.0364 0.3264,-0.7808 0.384,-0.7745 0.4361,-0.7674 0.4846,-0.7592 0.5306,-0.7501 0.5643,0.0645 0.5633,0.0724 0.3357,0.8553 0.2889,0.8532 0.2397,0.8494 0.1875,0.8439 0.1301,0.8362 0.7138,0.1384 0.7108,0.1525 0.4475,-0.7184 0.5033,-0.7029 0.5535,-0.6874 0.6001,-0.6717 0.6441,-0.6553 0.5466,0.1543 0.5444,0.1617 0.1942,0.8981 0.1482,0.8885 0.1004,0.8768 0.0497,0.8631 -0.006,0.8463 0.6823,0.2511 0.6772,0.2645 0.5569,-0.6373 0.6095,-0.613 0.6566,-0.5898 0.7001,-0.5667 0.7409,-0.5435 0.5148,0.2399 0.5114,0.2471 0.0476,0.9176 0.004,0.9007 -0.0416,0.8816 -0.0894,0.8598 -0.1414,0.8344 0.6332,0.3574 0.626,0.3697 0.652,-0.5397 0.6999,-0.5074 0.7427,-0.4768 0.782,-0.447 0.8184,-0.4176 0.4697,0.3194 0.4651,0.3258 -0.1002,0.9134 -0.1407,0.8896 -0.1825,0.8636 -0.2262,0.8343 -0.2734,0.801 0.5677,0.4542 0.5586,0.4653 0.7301,-0.4281 0.7722,-0.3885 0.8096,-0.3514 0.8435,-0.3159 0.8749,-0.2809 0.4123,0.3906 0.4069,0.3963 -0.2455,0.8854 -0.2816,0.8556 -0.3186,0.823 -0.3571,0.7873 -0.3984,0.7467 0.4875,0.5395 0.4768,0.5489 0.7892,-0.3055 0.8246,-0.2596 0.8555,-0.217 0.8833,-0.1765 0.9085,-0.1369 0.3444,0.4517 0.338,0.4564 -0.3843,0.8346 -0.4152,0.7993 -0.4465,0.7613 -0.4788,0.7198 -0.513,0.6731 0.3946,0.6107 0.3826,0.6183 0.828,-0.1749 0.8555,-0.124 0.8793,-0.077 0.9001,-0.0325 0.9188,0.0106 0.2674,0.501 0.2604,0.5048 -0.5132,0.7621 -0.538,0.7224 -0.5629,0.6798 -0.588,0.6337 -0.6143,0.5821 0.2915,0.666 0.2784,0.6717 0.8454,-0.0398 0.8644,0.0149 0.8802,0.065 0.8936,0.1123 0.9052,0.1579 0.1836,0.5374 0.1761,0.54 -0.6288,0.6699 -0.647,0.6267 -0.6646,0.5807 -0.682,0.5312 -0.6998,0.476 0.1809,0.7042 0.1671,0.7076 0.8408,0.0964 0.8508,0.1533 0.8583,0.2054 0.8641,0.2542 0.8682,0.301 0.095,0.5599 0.0872,0.5612 -0.7282,0.5605 -0.7391,0.5147 -0.7491,0.4667 -0.7585,0.4148 -0.767,0.3577 0.0656,0.724 z"
         id="path4075" />
      <circle
         style="fill:none;stroke:#0000ff;stroke-width:0.1;stroke-miterlimit:4;stroke-dasharray:none"
         cx="179.99969"
         cy="165"
         r="39"
         inkscape:label="Pitch circle"
         id="circle4077" />
      <path
         inkscape:label="Center cross"
         style="fill:none;stroke:#0000ff;stroke-width:0.1;stroke-miterlimit:4;stroke-dasharray:none"
         d="m 177.9053,165 h 4.1888 m -2.0944,-2.0944 v 4.1888"
         id="path4079" />
      <circle
         style="fill:none;stroke:#0000ff;stroke-width:0.0999999;stroke-miterlimit:4;stroke-dasharray:none;stop-color:#000000"
         id="circle4081"
         cx="180"
         cy="165"
         r="23.5" />
      <circle
         style="fill:none;stroke:#ff0000;stroke-width:0.1;stroke-miterlimit:4;stroke-dasharray:none;stop-color:#000000"
         id="circle4083"
         cx="157"
         cy="165"
         r="1"
         inkscape:transform-center-x="23" />
      <circle
         style="fill:none;stroke:#ff0000;stroke-width:0.1;stroke-miterlimit:4;stroke-dasharray:none;stop-color:#000000"
         id="circle4085"
         cx="189.54738"
         cy="-120.20237"
         r="1"
         inkscape:transform-center-x="7.1073918"
         transform="rotate(72)"
         inkscape:transform-center-y="-21.874305" />
      <circle
         style="fill:none;stroke:#ff0000;stroke-width:0.1;stroke-miterlimit:4;stroke-dasharray:none;stop-color:#000000"
         id="circle4087"
         cx="-71.638496"
         cy="-239.28915"
         r="1"
         inkscape:transform-center-x="-18.607397"
         transform="rotate(144)"
         inkscape:transform-center-y="-13.519059" />
      <circle
         style="fill:none;stroke:#ff0000;stroke-width:0.1;stroke-miterlimit:4;stroke-dasharray:none;stop-color:#000000"
         id="circle4089"
         cx="-265.60764"
         cy="-27.686464"
         r="1"
         inkscape:transform-center-x="-18.607396"
         transform="rotate(-144)"
         inkscape:transform-center-y="13.519072" />
      <circle
         style="fill:none;stroke:#ff0000;stroke-width:0.1;stroke-miterlimit:4;stroke-dasharray:none;stop-color:#000000"
         id="circle4091"
         cx="-124.30128"
         cy="222.17796"
         r="1"
         inkscape:transform-center-x="7.1074069"
         transform="rotate(-72)"
         inkscape:transform-center-y="21.874307" />
    </g>
  </g>
  <g
     inkscape:label="Konstr"
     inkscape:groupmode="layer"
     id="layer1"
     style="display:none">
    <g
       id="g3870"
       transform="translate(200,-40)">
      <text
         inkscape:label="Annotation"
         style="font-style:normal;font-weight:normal;font-size:10px;font-family:'Bitstream Vera Sans', sans-serif;text-align:center;text-anchor:middle;display:inline;fill:#f6921e"
         x="29.206032"
         y="58.595558"
         id="text1219">Teeth: 13 CP: 6.2832(mm)</text>
      <text
         inkscape:label="Annotation"
         style="font-style:normal;font-weight:normal;font-size:10px;font-family:'Bitstream Vera Sans', sans-serif;text-align:center;text-anchor:middle;display:inline;fill:#f6921e"
         x="29.206032"
         y="72.99556"
         id="text1221">DP: 0.500 Module: 50.8000</text>
      <text
         inkscape:label="Annotation"
         style="font-style:normal;font-weight:normal;font-size:10px;font-family:'Bitstream Vera Sans', sans-serif;text-align:center;text-anchor:middle;display:inline;fill:#f6921e"
         x="29.206032"
         y="87.395561"
         id="text1223">Pressure Angle: 25.00 degrees</text>
      <text
         inkscape:label="Annotation"
         style="font-style:normal;font-weight:normal;font-size:10px;font-family:'Bitstream Vera Sans', sans-serif;text-align:center;text-anchor:middle;display:inline;fill:#f6921e"
         x="29.206032"
         y="101.79556"
         id="text1225">Pitch diameter: 26.000 mm</text>
      <text
         inkscape:label="Annotation"
         style="font-style:normal;font-weight:normal;font-size:10px;font-family:'Bitstream Vera Sans', sans-serif;text-align:center;text-anchor:middle;display:inline;fill:#f6921e"
         x="29.206032"
         y="116.19556"
         id="text1227">Outer diameter: 30.000 mm</text>
      <text
         inkscape:label="Annotation"
         style="font-style:normal;font-weight:normal;font-size:10px;font-family:'Bitstream Vera Sans', sans-serif;text-align:center;text-anchor:middle;display:inline;fill:#f6921e"
         x="29.206032"
         y="130.59557"
         id="text1229">Base diameter: 23.564 mm</text>
    </g>
    <g
       id="g3514"
       transform="translate(-245,-120)">
      <circle
         style="fill:none;stroke:#ff0000;stroke-width:0.1;stroke-miterlimit:4;stroke-dasharray:none;stop-color:#000000"
         id="path3114"
         cx="280"
         cy="165"
         r="3" />
      <rect
         style="fill:none;stroke:#ff0000;stroke-width:0.1;stroke-miterlimit:4;stroke-dasharray:none;stop-color:#000000"
         id="rect3325"
         width="2"
         height="12"
         x="279"
         y="159" />
      <rect
         style="fill:none;stroke:#ff0000;stroke-width:0.1;stroke-miterlimit:4;stroke-dasharray:none;stop-color:#000000"
         id="rect3429"
         width="6"
         height="2"
         x="276.99997"
         y="167.3" />
    </g>
    <g
       id="g3634"
       transform="translate(-255,30)">
      <circle
         style="fill:none;stroke:#ff0000;stroke-width:0.1;stroke-miterlimit:4;stroke-dasharray:none;stop-color:#000000"
         id="circle3196"
         cx="280"
         cy="165"
         r="17.5" />
      <rect
         style="fill:none;stroke:#ff0000;stroke-width:0.1;stroke-miterlimit:4;stroke-dasharray:none;stop-color:#000000"
         id="rect3538"
         width="5"
         height="37.999996"
         x="277.5"
         y="146" />
      <rect
         style="fill:none;stroke:#ff0000;stroke-width:0.1;stroke-miterlimit:4;stroke-dasharray:none;stop-color:#000000"
         id="rect3620"
         width="5"
         height="37.999996"
         x="240.94908"
         y="-234.30801"
         transform="rotate(72)" />
      <rect
         style="fill:none;stroke:#ff0000;stroke-width:0.1;stroke-miterlimit:4;stroke-dasharray:none;stop-color:#000000"
         id="rect3622"
         width="5"
         height="37.999996"
         x="-132.04019"
         y="-317.06766"
         transform="rotate(144)" />
      <rect
         style="fill:none;stroke:#ff0000;stroke-width:0.1;stroke-miterlimit:4;stroke-dasharray:none;stop-color:#000000"
         id="rect3624"
         width="5"
         height="37.999996"
         x="-326.00931"
         y="12.092073"
         transform="rotate(-144)" />
      <rect
         style="fill:none;stroke:#ff0000;stroke-width:0.1;stroke-miterlimit:4;stroke-dasharray:none;stop-color:#000000"
         id="rect3626"
         width="5"
         height="37.999996"
         x="-72.899559"
         y="298.28363"
         transform="rotate(-72)" />
    </g>
    <g
       id="g3749"
       transform="translate(65.79397,-120.39556)">
      <path
         id="path3737"
         style="fill:none;stroke:#ff0000;stroke-width:0.377953;stroke-miterlimit:4;stroke-dasharray:none"
         d="m 222.99219,600.94531 v 12.01953 a 11.338583,11.338583 0 0 0 -3.48828,19.34961 h 3.48828 v 13.98438 h 7.55859 v -13.98438 h 3.49024 a 11.338583,11.338583 0 0 0 -3.49024,-19.37109 v -11.99805 z"
         transform="matrix(0.26458333,0,0,0.26458333,-30.793969,0.39556)" />
      <path
         style="fill:none;stroke:#ff0000;stroke-width:0.1;stroke-miterlimit:4;stroke-dasharray:none"
         d="m 40.854331,163.62546 0.2957,-4e-4 0.3011,0.0374 0.304,0.0637 0.306,0.0863 0.3071,0.1069 0.3076,0.1262 0.3074,0.1446 0.3066,0.1625 0.3052,0.1798 0.3033,0.1967 0.3009,0.2133 0.0051,0.2265 0.0017,0.2266 -0.0017,0.2266 -0.0051,0.2265 -0.3009,0.2133 -0.3033,0.1967 -0.3052,0.1798 -0.3066,0.1625 -0.3074,0.1446 -0.3076,0.1262 -0.3071,0.1069 -0.306,0.0863 -0.304,0.0637 -0.3011,0.0374 -0.2957,-4e-4 -0.7731,-0.1175 -0.0863,0.4921 -0.1085,0.4878 -0.1306,0.4823 -0.1523,0.4758 0.7391,0.2553 0.2621,0.1371 0.2492,0.173 0.2396,0.1977 0.2308,0.2186 0.2223,0.2374 0.2137,0.2546 0.205,0.2709 0.196,0.2864 0.1867,0.301 0.1771,0.3152 0.1672,0.3287 -0.1007,0.2029 -0.1038,0.2014 -0.1068,0.1999 -0.1098,0.1981 -0.3655,0.0492 -0.36,0.0332 -0.3538,0.0174 -0.347,0.001 -0.3394,-0.0148 -0.331,-0.0312 -0.3216,-0.0481 -0.311,-0.0658 -0.2988,-0.0849 -0.2839,-0.1068 -0.2618,-0.1378 -0.6299,-0.4633 -0.3051,0.3957 -0.3228,0.3814 -0.3397,0.3664 -0.3561,0.3506 0.5359,0.5695 0.1683,0.2432 0.1403,0.269 0.1203,0.2864 0.1028,0.3008 0.0865,0.3135 0.0709,0.3248 0.0556,0.3352 0.0404,0.3446 0.0255,0.3533 0.0104,0.3614 -0.0048,0.3688 -0.1835,0.1329 -0.1854,0.1301 -0.1874,0.1272 -0.1894,0.1245 -0.3464,-0.1264 -0.3342,-0.1378 -0.3214,-0.1491 -0.3079,-0.1601 -0.2936,-0.1708 -0.2786,-0.1814 -0.2624,-0.1921 -0.2449,-0.2028 -0.2251,-0.214 -0.2018,-0.2265 -0.1677,-0.2436 -0.3425,-0.703 -0.454,0.2085 -0.463,0.1878 -0.4711,0.1665 -0.4782,0.145 0.2098,0.7533 0.036,0.2936 -8e-4,0.3033 -0.0266,0.3095 -0.0488,0.3141 -0.069,0.3178 -0.0882,0.3205 -0.1065,0.3226 -0.1243,0.324 -0.1417,0.3247 -0.1588,0.3248 -0.1755,0.3243 -0.2243,0.0324 -0.2246,0.029 -0.2252,0.0256 -0.2254,0.0222 -0.2481,-0.2728 -0.2318,-0.2774 -0.2153,-0.2814 -0.1983,-0.2848 -0.1806,-0.2877 -0.1623,-0.2901 -0.1431,-0.292 -0.1226,-0.2934 -0.0998,-0.2941 -0.0735,-0.2943 -0.0352,-0.2937 0.0234,-0.7816 -0.4989,-0.0264 -0.4973,-0.0489 -0.4945,-0.0715 -0.4908,-0.0938 -0.1643,0.7645 -0.1045,0.2767 -0.1417,0.2682 -0.1674,0.2617 -0.1892,0.2555 -0.2088,0.2492 -0.227,0.2429 -0.2443,0.2361 -0.2606,0.2291 -0.2764,0.2217 -0.2915,0.2138 -0.3061,0.2056 -0.2136,-0.0755 -0.2125,-0.0788 -0.2112,-0.0819 -0.21,-0.0851 -0.0928,-0.3569 -0.0764,-0.3534 -0.0599,-0.3492 -0.0431,-0.3442 -0.0263,-0.3388 -0.0089,-0.3323 0.009,-0.3251 0.0279,-0.3167 0.0482,-0.3068 0.0718,-0.2947 0.1052,-0.2764 0.384,-0.6813 -0.4296,-0.2552 -0.4175,-0.2744 -0.4047,-0.2931 -0.3909,-0.3112 -0.5008,0.6007 -0.2211,0.1964 -0.2501,0.1716 -0.2698,0.1539 -0.2863,0.1383 -0.3007,0.1237 -0.3139,0.1095 -0.326,0.0956 -0.3373,0.0817 -0.3477,0.0679 -0.3575,0.0538 -0.3666,0.0398 -0.154,-0.1661 -0.1516,-0.1685 -0.1489,-0.1707 -0.1464,-0.1729 0.0837,-0.3592 0.0966,-0.3484 0.1092,-0.337 0.1218,-0.3249 0.1342,-0.3121 0.1465,-0.2984 0.1591,-0.2837 0.1718,-0.2674 0.1853,-0.2493 0.2005,-0.2276 0.2217,-0.1959 0.6566,-0.4247 -0.2618,-0.4256 -0.2422,-0.437 -0.2221,-0.4476 -0.2016,-0.4572 -0.7225,0.299 -0.2871,0.0712 -0.3012,0.0357 -0.3104,0.0109 -0.3178,-0.0105 -0.3238,-0.0303 -0.3288,-0.0489 -0.3331,-0.0668 -0.3366,-0.0844 -0.3394,-0.1015 -0.3415,-0.1184 -0.3432,-0.1352 -0.0591,-0.2187 -0.0559,-0.2196 -0.0526,-0.2203 -0.0492,-0.2212 0.241,-0.2791 0.2474,-0.2636 0.2534,-0.2477 0.2588,-0.2311 0.2638,-0.214 0.2685,-0.1961 0.2726,-0.1773 0.2765,-0.157 0.2799,-0.1346 0.2833,-0.1083 0.2873,-0.0704 0.7788,-0.071 -0.0341,-0.4985 -0.0113,-0.4995 0.0113,-0.4995 0.0341,-0.4985 -0.7788,-0.071 -0.2873,-0.0704 -0.2833,-0.1083 -0.2799,-0.1346 -0.2765,-0.157 -0.2726,-0.1773 -0.2685,-0.1961 -0.2638,-0.214 -0.2588,-0.2311 -0.2534,-0.2477 -0.2474,-0.2636 -0.241,-0.2791 0.0492,-0.2212 0.0526,-0.2203 0.0559,-0.2196 0.0591,-0.2187 0.3432,-0.1352 0.3415,-0.1184 0.3394,-0.1015 0.3366,-0.0844 0.3331,-0.0668 0.3288,-0.0489 0.3238,-0.0303 0.3178,-0.0105 0.3104,0.0109 0.3012,0.0357 0.2871,0.0712 0.7225,0.299 0.2016,-0.4572 0.2221,-0.4476 0.2422,-0.437 0.2618,-0.4256 -0.6566,-0.4247 -0.2217,-0.1959 -0.2005,-0.2276 -0.1853,-0.2493 -0.1718,-0.2674 -0.1591,-0.2837 -0.1465,-0.2984 -0.1342,-0.3121 -0.1218,-0.3249 -0.1092,-0.337 -0.0966,-0.3484 -0.0837,-0.3592 0.1464,-0.1729 0.1489,-0.1707 0.1516,-0.1685 0.154,-0.1661 0.3666,0.0398 0.3575,0.0538 0.3477,0.0679 0.3373,0.0817 0.326,0.0956 0.3139,0.1095 0.3007,0.1237 0.2863,0.1383 0.2698,0.1539 0.2501,0.1716 0.2211,0.1964 0.5008,0.6007 0.3909,-0.3112 0.4047,-0.2931 0.4175,-0.2744 0.4296,-0.2552 -0.384,-0.6813 -0.1052,-0.2764 -0.0718,-0.2947 -0.0482,-0.3068 -0.0279,-0.3167 -0.009,-0.3251 0.0089,-0.3323 0.0263,-0.3388 0.0431,-0.3442 0.0599,-0.3492 0.0764,-0.3534 0.0928,-0.3569 0.21,-0.0851 0.2112,-0.0819 0.2125,-0.0788 0.2136,-0.0755 0.3061,0.2056 0.2915,0.2138 0.2764,0.2217 0.2606,0.2291 0.2443,0.2361 0.227,0.2429 0.2088,0.2492 0.1892,0.2555 0.1674,0.2617 0.1417,0.2682 0.1045,0.2767 0.1643,0.7645 0.4908,-0.0938 0.4945,-0.0715 0.4973,-0.0489 0.4989,-0.0264 -0.0234,-0.7816 0.0352,-0.2937 0.0735,-0.2943 0.0998,-0.2941 0.1226,-0.2934 0.1431,-0.292 0.1623,-0.2901 0.1806,-0.2877 0.1983,-0.2848 0.2153,-0.2814 0.2318,-0.2774 0.2481,-0.2728 0.2254,0.0222 0.2252,0.0256 0.2246,0.029 0.2243,0.0324 0.1755,0.3243 0.1588,0.3248 0.1417,0.3247 0.1243,0.324 0.1065,0.3226 0.0882,0.3205 0.069,0.3178 0.0488,0.3141 0.0266,0.3095 8e-4,0.3033 -0.036,0.2936 -0.2098,0.7533 0.4782,0.145 0.4711,0.1665 0.463,0.1878 0.454,0.2085 0.3425,-0.703 0.1677,-0.2436 0.2018,-0.2265 0.2251,-0.214 0.2449,-0.2028 0.2624,-0.1921 0.2786,-0.1814 0.2936,-0.1708 0.3079,-0.1601 0.3214,-0.1491 0.3342,-0.1378 0.3464,-0.1264 0.1894,0.1245 0.1874,0.1272 0.1854,0.1301 0.1835,0.1329 0.0048,0.3688 -0.0104,0.3614 -0.0255,0.3533 -0.0404,0.3446 -0.0556,0.3352 -0.0709,0.3248 -0.0865,0.3135 -0.1028,0.3008 -0.1203,0.2864 -0.1403,0.269 -0.1683,0.2432 -0.5359,0.5695 0.3561,0.3506 0.3397,0.3664 0.3228,0.3814 0.3051,0.3957 0.6299,-0.4633 0.2618,-0.1378 0.2839,-0.1068 0.2988,-0.0849 0.311,-0.0658 0.3216,-0.0481 0.331,-0.0312 0.3394,-0.0148 0.347,10e-4 0.3538,0.0174 0.36,0.0332 0.3655,0.0492 0.1098,0.1981 0.1068,0.1999 0.1038,0.2014 0.1007,0.2029 -0.1672,0.3287 -0.1771,0.3152 -0.1867,0.301 -0.196,0.2864 -0.205,0.2709 -0.2137,0.2546 -0.2223,0.2374 -0.2308,0.2186 -0.2396,0.1977 -0.2492,0.173 -0.2621,0.1371 -0.7391,0.2553 0.1523,0.4758 0.1306,0.4823 0.1085,0.4878 0.0863,0.4921 z"
         id="path3739" />
      <path
         inkscape:label="Center cross"
         style="fill:none;stroke:#0000ff;stroke-width:0.1;stroke-miterlimit:4;stroke-dasharray:none"
         d="m 27.111636,165.39556 h 4.18879 m -2.094395,-2.0944 v 4.1888"
         id="path3741" />
      <circle
         style="fill:none;stroke:#0000ff;stroke-width:0.1;stroke-miterlimit:4;stroke-dasharray:none"
         cx="29.206032"
         cy="165.39555"
         r="13"
         inkscape:label="Pitch circle"
         id="circle3743" />
      <circle
         style="fill:none;stroke:#ff0000;stroke-width:0.1;stroke-miterlimit:4;stroke-dasharray:none;stop-color:#000000"
         id="circle3745"
         cx="36.206032"
         cy="165.39555"
         r="1" />
      <circle
         style="fill:none;stroke:#ff0000;stroke-width:0.1;stroke-miterlimit:4;stroke-dasharray:none;stop-color:#000000"
         id="circle3747"
         cx="22.206032"
         cy="165.39555"
         r="1" />
    </g>
    <g
       id="g3771"
       transform="translate(-85,30)">
      <path
         id="path3751"
         style="fill:none;stroke:#ff0000;stroke-width:0.1;stroke-miterlimit:4;stroke-dasharray:none"
         d="m 177.49976,145.99987 v 1.68569 a 17.5,17.5 0 0 0 -5.65134,1.84175 l -0.99373,-1.36788 -4.04524,2.93884 0.98909,1.36116 a 17.5,17.5 0 0 0 -3.48661,4.81469 l -1.60972,-0.52297 -1.54461,4.75527 1.60662,0.52193 a 17.5,17.5 0 0 0 0,5.94331 l -1.60662,0.52193 1.54461,4.75526 1.60972,-0.52296 a 17.5,17.5 0 0 0 3.48661,4.81469 l -0.98909,1.36116 4.04524,2.93884 0.99373,-1.36788 a 17.5,17.5 0 0 0 5.65134,1.84175 v 1.68569 h 5.00021 v -1.68569 a 17.5,17.5 0 0 0 5.65185,-1.84175 l 0.99374,1.36788 4.04471,-2.93884 -0.98908,-1.36167 a 17.5,17.5 0 0 0 3.4866,-4.81418 l 1.60973,0.52296 1.54512,-4.75526 -1.60714,-0.52193 a 17.5,17.5 0 0 0 0,-5.94279 l 1.60714,-0.52245 -1.54512,-4.75527 -1.60973,0.52297 a 17.5,17.5 0 0 0 -3.4866,-4.81418 l 0.98908,-1.36167 -4.04471,-2.93884 -0.99374,1.36788 a 17.5,17.5 0 0 0 -5.65185,-1.84175 v -1.68569 z" />
      <path
         style="fill:none;stroke:#ff0000;stroke-width:0.1;stroke-miterlimit:4;stroke-dasharray:none"
         d="m 216.9311,162.748 0.8145,0.2299 0.8151,0.2879 0.8143,0.3404 0.8122,0.3895 0.8086,0.4364 0.004,0.5679 -0.004,0.5679 -0.8086,0.4364 -0.8122,0.3895 -0.8143,0.3404 -0.8151,0.2879 -0.8145,0.2299 -0.0514,0.7253 -0.0656,0.724 0.767,0.3577 0.7585,0.4148 0.7491,0.4667 0.7391,0.5147 0.7282,0.5605 -0.0872,0.5612 -0.095,0.5599 -0.8682,0.301 -0.8641,0.2542 -0.8583,0.2054 -0.8508,0.1533 -0.8408,0.0964 -0.1671,0.7076 -0.1809,0.7042 0.6998,0.476 0.682,0.5312 0.6646,0.5807 0.647,0.6267 0.6288,0.6699 -0.1761,0.54 -0.1836,0.5374 -0.9052,0.1579 -0.8936,0.1123 -0.8802,0.065 -0.8644,0.0149 -0.8454,-0.0398 -0.2784,0.6717 -0.2915,0.666 0.6143,0.5821 0.588,0.6337 0.5629,0.6798 0.538,0.7224 0.5132,0.7621 -0.2604,0.5048 -0.2674,0.501 -0.9188,0.0106 -0.9001,-0.0325 -0.8793,-0.077 -0.8555,-0.124 -0.828,-0.1749 -0.3826,0.6183 -0.3946,0.6107 0.513,0.6731 0.4788,0.7198 0.4465,0.7613 0.4152,0.7993 0.3843,0.8346 -0.338,0.4564 -0.3444,0.4517 -0.9085,-0.1369 -0.8833,-0.1765 -0.8555,-0.217 -0.8246,-0.2596 -0.7892,-0.3055 -0.4768,0.5489 -0.4875,0.5395 0.3984,0.7467 0.3571,0.7873 0.3186,0.823 0.2816,0.8556 0.2455,0.8854 -0.4069,0.3963 -0.4123,0.3906 -0.8749,-0.2809 -0.8435,-0.3159 -0.8096,-0.3514 -0.7722,-0.3885 -0.7301,-0.4281 -0.5586,0.4653 -0.5677,0.4542 0.2734,0.801 0.2262,0.8343 0.1825,0.8636 0.1407,0.8896 0.1002,0.9134 -0.4651,0.3258 -0.4697,0.3194 -0.8184,-0.4176 -0.782,-0.447 -0.7427,-0.4768 -0.6999,-0.5074 -0.652,-0.5397 -0.626,0.3697 -0.6332,0.3574 0.1414,0.8344 0.0894,0.8598 0.0416,0.8816 -0.004,0.9007 -0.0476,0.9176 -0.5114,0.2471 -0.5148,0.2399 -0.7409,-0.5435 -0.7001,-0.5667 -0.6566,-0.5898 -0.6095,-0.613 -0.5569,-0.6373 -0.6772,0.2645 -0.6823,0.2511 0.006,0.8463 -0.0497,0.8631 -0.1004,0.8768 -0.1482,0.8885 -0.1942,0.8981 -0.5444,0.1617 -0.5466,0.1543 -0.6441,-0.6553 -0.6001,-0.6717 -0.5535,-0.6874 -0.5033,-0.7029 -0.4475,-0.7184 -0.7108,0.1525 -0.7138,0.1384 -0.1301,0.8362 -0.1875,0.8439 -0.2397,0.8494 -0.2889,0.8532 -0.3357,0.8553 -0.5633,0.0724 -0.5643,0.0645 -0.5306,-0.7501 -0.4846,-0.7592 -0.4361,-0.7674 -0.384,-0.7745 -0.3264,-0.7808 -0.7262,0.0364 -0.7267,0.0221 -0.2625,0.8046 -0.3205,0.8029 -0.3729,0.7999 -0.4219,0.7958 -0.4686,0.7904 -0.5676,-0.019 -0.5673,-0.0267 -0.4035,-0.8256 -0.3565,-0.8271 -0.3073,-0.8274 -0.2548,-0.8261 -0.197,-0.823 -0.7226,-0.0806 -0.7208,-0.0947 -0.3882,0.752 -0.4451,0.7411 -0.4964,0.7298 -0.5441,0.7178 -0.5893,0.705 -0.5573,-0.1098 -0.5556,-0.1174 -0.2658,-0.8796 -0.2193,-0.8736 -0.1706,-0.866 -0.1189,-0.8562 -0.0624,-0.844 -0.7003,-0.1954 -0.6964,-0.2092 -0.5038,0.68 -0.5582,0.6602 -0.607,0.6406 -0.6522,0.6212 -0.6948,0.6014 -0.5324,-0.1977 -0.5296,-0.2051 -0.1213,-0.9108 -0.0763,-0.8975 -0.0295,-0.8821 0.02,-0.8642 0.0738,-0.8431 -0.6599,-0.3052 -0.6538,-0.3182 -0.6064,0.5904 -0.6568,0.562 -0.702,0.5351 -0.7434,0.5085 -0.7822,0.4821 -0.4938,-0.2806 -0.4899,-0.2873 0.0264,-0.9185 0.0687,-0.8981 0.1124,-0.8754 0.1583,-0.8498 0.2081,-0.8204 -0.6024,-0.4071 -0.5943,-0.4189 -0.6932,0.4855 -0.7385,0.4494 -0.7787,0.4155 -0.8153,0.3827 -0.8494,0.3503 -0.4425,-0.3561 -0.4374,-0.3622 0.1734,-0.9024 0.2119,-0.8754 0.2513,-0.8461 0.2926,-0.8134 0.337,-0.7763 -0.5293,-0.4985 -0.5194,-0.5088 -0.7621,0.368 -0.801,0.3251 -0.8353,0.2852 -0.8662,0.2469 -0.8946,0.2096 -0.3795,-0.4225 -0.3737,-0.4277 0.3159,-0.8628 0.3495,-0.8301 0.3838,-0.7948 0.4193,-0.756 0.4572,-0.7122 -0.4425,-0.5769 -0.431,-0.5855 -0.8113,0.2409 -0.8428,0.1924 -0.8702,0.1475 -0.8946,0.1048 -0.9166,0.0634 -0.3069,-0.4779 -0.3002,-0.4821 0.4502,-0.801 0.4782,-0.7633 0.5063,-0.7229 0.5351,-0.6789 0.5655,-0.6297 -0.3442,-0.6404 -0.3315,-0.6471 -0.8394,0.1077 -0.8628,0.0547 -0.8826,0.006 -0.8998,-0.04 -0.9149,-0.0845 -0.2263,-0.521 -0.2189,-0.524 0.5728,-0.7184 0.5945,-0.6767 0.6157,-0.6323 0.6371,-0.5843 0.6592,-0.5308 -0.237,-0.6874 -0.2235,-0.6918 -0.8458,-0.0284 -0.8604,-0.0844 -0.8721,-0.1356 -0.8817,-0.1839 -0.8896,-0.2302 -0.1397,-0.5505 -0.1321,-0.5523 0.6807,-0.6172 0.6953,-0.5726 0.7092,-0.5254 0.7225,-0.4745 0.7358,-0.4182 -0.1237,-0.7165 -0.1095,-0.7187 -0.8304,-0.1637 -0.8356,-0.2213 -0.8391,-0.2738 -0.8408,-0.3229 -0.8411,-0.3699 -0.0496,-0.5658 -0.0418,-0.5664 0.7709,-0.5 0.7781,-0.4536 0.7843,-0.4048 0.7893,-0.3525 0.7933,-0.2948 -0.007,-0.727 0.007,-0.727 -0.7933,-0.2948 -0.7893,-0.3525 -0.7843,-0.4048 -0.7781,-0.4536 -0.7709,-0.5 0.0418,-0.5664 0.0496,-0.5658 0.8411,-0.3699 0.8408,-0.3229 0.8391,-0.2738 0.8356,-0.2213 0.8304,-0.1637 0.1095,-0.7187 0.1237,-0.7165 -0.7358,-0.4182 -0.7225,-0.4745 -0.7092,-0.5254 -0.6953,-0.5726 -0.6807,-0.6172 0.1321,-0.5523 0.1397,-0.5505 0.8896,-0.2302 0.8817,-0.1839 0.8721,-0.1356 0.8604,-0.0844 0.8458,-0.0284 0.2235,-0.6918 0.237,-0.6874 -0.6592,-0.5308 -0.6371,-0.5843 -0.6157,-0.6323 -0.5945,-0.6767 -0.5728,-0.7184 0.2189,-0.524 0.2263,-0.521 0.9149,-0.0845 0.8998,-0.04 0.8826,0.006 0.8628,0.0547 0.8394,0.1077 0.3315,-0.6471 0.3442,-0.6404 -0.5655,-0.6297 -0.5351,-0.6789 -0.5063,-0.7229 -0.4782,-0.7633 -0.4502,-0.801 0.3002,-0.4821 0.3069,-0.4779 0.9166,0.0634 0.8946,0.1048 0.8702,0.1475 0.8428,0.1924 0.8113,0.2409 0.431,-0.5855 0.4425,-0.5769 -0.4572,-0.7122 -0.4193,-0.756 -0.3838,-0.7948 -0.3495,-0.8301 -0.3159,-0.8628 0.3737,-0.4277 0.3795,-0.4225 0.8946,0.2096 0.8662,0.2469 0.8353,0.2852 0.801,0.3251 0.7621,0.368 0.5194,-0.5088 0.5293,-0.4985 -0.337,-0.7763 -0.2926,-0.8134 -0.2513,-0.8461 -0.2119,-0.8754 -0.1734,-0.9024 0.4374,-0.3622 0.4425,-0.3561 0.8494,0.3503 0.8153,0.3827 0.7787,0.4155 0.7385,0.4494 0.6932,0.4855 0.5943,-0.4189 0.6024,-0.4071 -0.2081,-0.8204 -0.1583,-0.8498 -0.1124,-0.8754 -0.0687,-0.8981 -0.0264,-0.9185 0.4899,-0.2873 0.4938,-0.2806 0.7822,0.4821 0.7434,0.5085 0.702,0.5351 0.6568,0.562 0.6064,0.5904 0.6538,-0.3182 0.6599,-0.3052 -0.0738,-0.8431 -0.02,-0.8642 0.0295,-0.8821 0.0763,-0.8975 0.1213,-0.9108 0.5296,-0.2051 0.5324,-0.1977 0.6948,0.6014 0.6522,0.6212 0.607,0.6406 0.5582,0.6602 0.5038,0.68 0.6964,-0.2092 0.7003,-0.1954 0.0624,-0.844 0.1189,-0.8562 0.1706,-0.866 0.2193,-0.8736 0.2658,-0.8796 0.5556,-0.1174 0.5573,-0.1098 0.5893,0.705 0.5441,0.7178 0.4964,0.7298 0.4451,0.7411 0.3882,0.752 0.7208,-0.0947 0.7226,-0.0806 0.197,-0.823 0.2548,-0.8261 0.3073,-0.8274 0.3565,-0.8271 0.4035,-0.8256 0.5673,-0.0267 0.5676,-0.019 0.4686,0.7904 0.4219,0.7958 0.3729,0.7999 0.3205,0.8029 0.2625,0.8046 0.7267,0.0221 0.7262,0.0364 0.3264,-0.7808 0.384,-0.7745 0.4361,-0.7674 0.4846,-0.7592 0.5306,-0.7501 0.5643,0.0645 0.5633,0.0724 0.3357,0.8553 0.2889,0.8532 0.2397,0.8494 0.1875,0.8439 0.1301,0.8362 0.7138,0.1384 0.7108,0.1525 0.4475,-0.7184 0.5033,-0.7029 0.5535,-0.6874 0.6001,-0.6717 0.6441,-0.6553 0.5466,0.1543 0.5444,0.1617 0.1942,0.8981 0.1482,0.8885 0.1004,0.8768 0.0497,0.8631 -0.006,0.8463 0.6823,0.2511 0.6772,0.2645 0.5569,-0.6373 0.6095,-0.613 0.6566,-0.5898 0.7001,-0.5667 0.7409,-0.5435 0.5148,0.2399 0.5114,0.2471 0.0476,0.9176 0.004,0.9007 -0.0416,0.8816 -0.0894,0.8598 -0.1414,0.8344 0.6332,0.3574 0.626,0.3697 0.652,-0.5397 0.6999,-0.5074 0.7427,-0.4768 0.782,-0.447 0.8184,-0.4176 0.4697,0.3194 0.4651,0.3258 -0.1002,0.9134 -0.1407,0.8896 -0.1825,0.8636 -0.2262,0.8343 -0.2734,0.801 0.5677,0.4542 0.5586,0.4653 0.7301,-0.4281 0.7722,-0.3885 0.8096,-0.3514 0.8435,-0.3159 0.8749,-0.2809 0.4123,0.3906 0.4069,0.3963 -0.2455,0.8854 -0.2816,0.8556 -0.3186,0.823 -0.3571,0.7873 -0.3984,0.7467 0.4875,0.5395 0.4768,0.5489 0.7892,-0.3055 0.8246,-0.2596 0.8555,-0.217 0.8833,-0.1765 0.9085,-0.1369 0.3444,0.4517 0.338,0.4564 -0.3843,0.8346 -0.4152,0.7993 -0.4465,0.7613 -0.4788,0.7198 -0.513,0.6731 0.3946,0.6107 0.3826,0.6183 0.828,-0.1749 0.8555,-0.124 0.8793,-0.077 0.9001,-0.0325 0.9188,0.0106 0.2674,0.501 0.2604,0.5048 -0.5132,0.7621 -0.538,0.7224 -0.5629,0.6798 -0.588,0.6337 -0.6143,0.5821 0.2915,0.666 0.2784,0.6717 0.8454,-0.0398 0.8644,0.0149 0.8802,0.065 0.8936,0.1123 0.9052,0.1579 0.1836,0.5374 0.1761,0.54 -0.6288,0.6699 -0.647,0.6267 -0.6646,0.5807 -0.682,0.5312 -0.6998,0.476 0.1809,0.7042 0.1671,0.7076 0.8408,0.0964 0.8508,0.1533 0.8583,0.2054 0.8641,0.2542 0.8682,0.301 0.095,0.5599 0.0872,0.5612 -0.7282,0.5605 -0.7391,0.5147 -0.7491,0.4667 -0.7585,0.4148 -0.767,0.3577 0.0656,0.724 z"
         id="path3753" />
      <circle
         style="fill:none;stroke:#0000ff;stroke-width:0.1;stroke-miterlimit:4;stroke-dasharray:none"
         cx="179.99969"
         cy="165"
         r="39"
         inkscape:label="Pitch circle"
         id="circle3755" />
      <path
         inkscape:label="Center cross"
         style="fill:none;stroke:#0000ff;stroke-width:0.1;stroke-miterlimit:4;stroke-dasharray:none"
         d="m 177.9053,165 h 4.1888 m -2.0944,-2.0944 v 4.1888"
         id="path3757" />
      <circle
         style="fill:none;stroke:#0000ff;stroke-width:0.0999999;stroke-miterlimit:4;stroke-dasharray:none;stop-color:#000000"
         id="circle3759"
         cx="180"
         cy="165"
         r="23.5" />
      <circle
         style="fill:none;stroke:#ff0000;stroke-width:0.1;stroke-miterlimit:4;stroke-dasharray:none;stop-color:#000000"
         id="circle3761"
         cx="157"
         cy="165"
         r="1"
         inkscape:transform-center-x="23" />
      <circle
         style="fill:none;stroke:#ff0000;stroke-width:0.1;stroke-miterlimit:4;stroke-dasharray:none;stop-color:#000000"
         id="circle3763"
         cx="189.54738"
         cy="-120.20237"
         r="1"
         inkscape:transform-center-x="7.1073918"
         transform="rotate(72)"
         inkscape:transform-center-y="-21.874305" />
      <circle
         style="fill:none;stroke:#ff0000;stroke-width:0.1;stroke-miterlimit:4;stroke-dasharray:none;stop-color:#000000"
         id="circle3765"
         cx="-71.638496"
         cy="-239.28915"
         r="1"
         inkscape:transform-center-x="-18.607397"
         transform="rotate(144)"
         inkscape:transform-center-y="-13.519059" />
      <circle
         style="fill:none;stroke:#ff0000;stroke-width:0.1;stroke-miterlimit:4;stroke-dasharray:none;stop-color:#000000"
         id="circle3767"
         cx="-265.60764"
         cy="-27.686464"
         r="1"
         inkscape:transform-center-x="-18.607396"
         transform="rotate(-144)"
         inkscape:transform-center-y="13.519072" />
      <circle
         style="fill:none;stroke:#ff0000;stroke-width:0.1;stroke-miterlimit:4;stroke-dasharray:none;stop-color:#000000"
         id="circle3769"
         cx="-124.30128"
         cy="222.17796"
         r="1"
         inkscape:transform-center-x="7.1074069"
         transform="rotate(-72)"
         inkscape:transform-center-y="21.874307" />
    </g>
    <g
       id="g3878"
       transform="translate(50,130)">
      <text
         inkscape:label="Annotation"
         style="font-style:normal;font-weight:normal;font-size:10px;font-family:'Bitstream Vera Sans', sans-serif;text-align:center;text-anchor:middle;display:inline;fill:#f6921e"
         x="177.5"
         y="28.860001"
         id="text2170">Teeth: 39 CP: 6.2832(mm)</text>
      <text
         inkscape:label="Annotation"
         style="font-style:normal;font-weight:normal;font-size:10px;font-family:'Bitstream Vera Sans', sans-serif;text-align:center;text-anchor:middle;display:inline;fill:#f6921e"
         x="177.5"
         y="44.580002"
         id="text2172">DP: 0.500 Module: 50.8000</text>
      <text
         inkscape:label="Annotation"
         style="font-style:normal;font-weight:normal;font-size:10px;font-family:'Bitstream Vera Sans', sans-serif;text-align:center;text-anchor:middle;display:inline;fill:#f6921e"
         x="177.5"
         y="60.300003"
         id="text2174">Pressure Angle: 25.00 degrees</text>
      <text
         inkscape:label="Annotation"
         style="font-style:normal;font-weight:normal;font-size:10px;font-family:'Bitstream Vera Sans', sans-serif;text-align:center;text-anchor:middle;display:inline;fill:#f6921e"
         x="177.5"
         y="76.019997"
         id="text2176">Pitch diameter: 78.000 mm</text>
      <text
         inkscape:label="Annotation"
         style="font-style:normal;font-weight:normal;font-size:10px;font-family:'Bitstream Vera Sans', sans-serif;text-align:center;text-anchor:middle;display:inline;fill:#f6921e"
         x="177.5"
         y="91.739998"
         id="text2178">Outer diameter: 82.000 mm</text>
      <text
         inkscape:label="Annotation"
         style="font-style:normal;font-weight:normal;font-size:10px;font-family:'Bitstream Vera Sans', sans-serif;text-align:center;text-anchor:middle;display:inline;fill:#f6921e"
         x="177.5"
         y="107.46"
         id="text2180">Base diameter: 70.692 mm</text>
    </g>
  </g>
</svg>
