<?xml version="1.0" encoding="UTF-8" standalone="no"?>
<!-- Created with Inkscape (http://www.inkscape.org/) -->

<svg
   width="210mm"
   height="297mm"
   viewBox="0 0 210 297"
   version="1.1"
   id="svg993"
   sodipodi:docname="Z50.svg"
   inkscape:version="1.1.2 (1:1.1+202202050852+0a00cf5339)"
   xmlns:inkscape="http://www.inkscape.org/namespaces/inkscape"
   xmlns:sodipodi="http://sodipodi.sourceforge.net/DTD/sodipodi-0.dtd"
   xmlns="http://www.w3.org/2000/svg"
   xmlns:svg="http://www.w3.org/2000/svg">
  <sodipodi:namedview
     id="namedview995"
     pagecolor="#ffffff"
     bordercolor="#666666"
     borderopacity="1.0"
     inkscape:pageshadow="2"
     inkscape:pageopacity="0.0"
     inkscape:pagecheckerboard="0"
     inkscape:document-units="mm"
     showgrid="false"
     inkscape:snap-center="false"
     inkscape:object-nodes="false"
     inkscape:snap-smooth-nodes="true"
     inkscape:zoom="2.0748823"
     inkscape:cx="0"
     inkscape:cy="85.547021"
     inkscape:window-width="1920"
     inkscape:window-height="1009"
     inkscape:window-x="0"
     inkscape:window-y="1080"
     inkscape:window-maximized="1"
     inkscape:current-layer="layer1"
     inkscape:snap-intersection-paths="false">
    <inkscape:grid
       type="xygrid"
       id="grid1294" />
  </sodipodi:namedview>
  <defs
     id="defs990" />
  <g
     inkscape:label="Ebene 1"
     inkscape:groupmode="layer"
     id="layer1">
    <path
       inkscape:label="Center cross"
       style="display:inline;fill:none;stroke:#0000ff;stroke-width:0.1;stroke-miterlimit:4;stroke-dasharray:none"
       d="m -2.09473,4e-5 h 4.1888 m -2.0944,-2.0944 v 4.1888"
       id="path3757-1" />
    <path
       id="path5240-7"
       style="color:#000000;fill:none;stroke:#ff0000;stroke-width:0.1;stroke-miterlimit:4;stroke-dasharray:none"
       d="m -2.527481,-52.03868 -0.744141,0.041 -0.744141,0.0527 -0.363281,0.91016 -0.302734,0.85351 -0.259766,0.85157 -0.21289,0.85156 -0.150391,0.77344 -0.710938,0.084 -0.710939,0.0957 -0.33594,-0.71289 -0.41992,-0.76953 -0.46289,-0.76172 -0.50586,-0.75195 -0.57812,-0.79102 -0.73438,0.13477 -0.73047,0.14453 -0.24804,0.94922 -0.19141,0.88477 -0.15234,0.8789 -0.10547,0.8711 -0.0488,0.78515 -0.69727,0.17188 -0.69336,0.18359 -0.42187,-0.66406 -0.51172,-0.71094 -0.55664,-0.69726 -0.59375,-0.6836 -0.67578,-0.71094 -0.70899,0.22461 -0.70703,0.23633 -0.12695,0.9707 -0.0801,0.90235 -0.041,0.89062 0.006,0.87696 0.0488,0.78515 -0.66992,0.25977 -0.66406,0.26953 -0.50391,-0.60547 -0.5957,-0.64258 -0.63867,-0.62304 -0.67578,-0.60157 -0.75782,-0.62304 -0.67773,0.31445 -0.67187,0.32031 -0.004,0.98047 0.0332,0.9043 0.0723,0.88867 0.11523,0.87109 0.14649,0.77344 -0.63086,0.33984 -0.62696,0.34961 -0.57421,-0.53711 -0.67188,-0.5625 -0.71289,-0.5371 -0.74609,-0.51368 -0.83008,-0.52148 -0.63086,0.39453 -0.62695,0.4043 0.11914,0.97265 0.14648,0.89453 0.18359,0.8711 0.22266,0.84961 0.24219,0.74804 -0.58399,0.41797 -0.57812,0.42578 -0.63672,-0.46289 -0.73828,-0.47265 -0.77344,-0.44336 -0.80469,-0.41602 -0.88867,-0.41406 -0.57617,0.4707 -0.57227,0.47852 0.24024,0.95117 0.25781,0.86914 0.29102,0.8418 0.32812,0.81445 0.33399,0.71289 -0.52735,0.48633 -0.51953,0.49414 -0.68945,-0.37695 -0.79297,-0.37696 -0.82227,-0.34375 -0.84961,-0.3125 -0.93359,-0.29882 -0.51367,0.54101 -0.50586,0.54492 0.35547,0.91407 0.36523,0.82812 0.39453,0.80078 0.42579,0.76563 0.41992,0.66601 -0.46094,0.54883 -0.45313,0.55664 -0.73242,-0.28906 -0.83203,-0.27539 -0.85937,-0.23828 -0.88282,-0.20313 -0.96289,-0.17773 -0.4414,0.59961 -0.43555,0.60547 0.46875,0.86132 0.46484,0.7754 0.49219,0.74414 0.51953,0.70703 0.5,0.60742 -0.38867,0.60156 -0.37891,0.60938 -0.76367,-0.19336 -0.85937,-0.16992 -0.88281,-0.12891 -0.9004,-0.0898 -0.97851,-0.0566 -0.36328,0.6504 -0.35547,0.65625 0.57226,0.79492 0.5586,0.71289 0.58203,0.67578 0.60352,0.63672 0.57226,0.53906 -0.31055,0.64648 -0.29882,0.65235 -0.78125,-0.0977 -0.875,-0.0605 -0.89258,-0.0156 -0.9043,0.0234 -0.97851,0.0644 -0.2793,0.69141 -0.26953,0.69531 0.66797,0.7168 0.64453,0.63672 0.66015,0.59765 0.67969,0.55664 0.63477,0.46289 -0.22657,0.68164 -0.21679,0.6836 h -0.78711 l -0.875,0.0508 -0.88672,0.0957 -0.89453,0.13672 -0.96289,0.1875 -0.18946,0.7207 -0.17968,0.72266 0.75195,0.62891 0.71875,0.55078 0.73047,0.50976 0.74219,0.4668 0.68945,0.38086 -0.14063,0.70312 -0.12695,0.70508 -0.78125,0.0996 -0.86328,0.16016 -0.86719,0.20508 -0.87109,0.24804 -0.92969,0.30664 -0.0996,0.74024 -0.0879,0.73828 0.82617,0.5293 0.78125,0.45703 0.78907,0.41406 0.79492,0.36914 0.73242,0.29102 -0.0508,0.71679 -0.0391,0.71485 -0.76172,0.19726 -0.83594,0.26758 -0.83594,0.3125 -0.83203,0.35547 -0.88477,0.41992 -0.006,0.74609 0.006,0.74415 0.88477,0.42187 0.83203,0.35547 0.83594,0.3125 0.83594,0.26562 0.76172,0.19727 0.0391,0.7168 0.0508,0.71484 -0.73242,0.29102 -0.79492,0.36914 -0.78907,0.41601 -0.78125,0.45703 -0.82617,0.52735 0.0879,0.74023 0.0996,0.73828 0.92969,0.30664 0.87109,0.24805 0.86719,0.20703 0.86328,0.16016 0.78125,0.0996 0.12695,0.70508 0.14063,0.70312 -0.68945,0.38086 -0.74219,0.46484 -0.73047,0.51172 -0.71875,0.55078 -0.75195,0.62891 0.17968,0.72266 0.18946,0.7207 0.96289,0.1875 0.89453,0.13672 0.88672,0.0957 0.875,0.0488 0.78711,0.002 0.21679,0.6836 0.22657,0.67968 -0.63477,0.46485 -0.67969,0.55468 -0.66015,0.59766 -0.64453,0.63672 -0.66797,0.71875 0.26953,0.69336 0.2793,0.69141 0.97851,0.0664 0.9043,0.0234 0.89258,-0.0156 0.875,-0.0605 0.78125,-0.0977 0.29882,0.65234 0.31055,0.64649 -0.57226,0.53906 -0.60352,0.63672 -0.58203,0.67578 -0.5586,0.71289 -0.57226,0.79492 0.35547,0.65625 0.36328,0.65039 0.97851,-0.0586 0.9004,-0.0898 0.88281,-0.12696 0.85937,-0.16992 0.76367,-0.19531 0.37891,0.60937 0.38867,0.60352 -0.5,0.60547 -0.51953,0.70898 -0.49219,0.74219 -0.46484,0.77734 -0.46875,0.86133 0.43555,0.60547 0.4414,0.59961 0.96289,-0.17969 0.88282,-0.20117 0.85937,-0.23828 0.83203,-0.27539 0.73242,-0.28906 0.45313,0.55664 0.46094,0.54883 -0.41992,0.66601 -0.42579,0.76563 -0.39453,0.79882 -0.36523,0.83008 -0.35547,0.91211 0.50586,0.54688 0.51367,0.53906 0.93359,-0.29883 0.84961,-0.31055 0.82227,-0.34375 0.79297,-0.37695 0.68945,-0.3789 0.51953,0.49609 0.52735,0.48633 -0.33399,0.71289 -0.32812,0.81445 -0.29102,0.8418 -0.25781,0.86719 -0.24024,0.95117 0.57227,0.47851 0.57617,0.47071 0.88867,-0.41211 0.80469,-0.41602 0.77344,-0.44336 0.73828,-0.47461 0.63672,-0.46094 0.57812,0.42579 0.58399,0.41601 -0.24219,0.75 -0.22266,0.84766 -0.18359,0.87304 -0.14648,0.89258 -0.11914,0.97461 0.62695,0.40235 0.63086,0.39648 0.83008,-0.52344 0.74609,-0.51172 0.71289,-0.53711 0.67188,-0.5625 0.57421,-0.53906 0.62696,0.35156 0.63086,0.33985 -0.14649,0.77344 -0.11523,0.86914 -0.0723,0.88867 -0.0332,0.9043 0.004,0.98046 0.67187,0.32227 0.67773,0.3125 0.75782,-0.62109 0.67578,-0.60157 0.63867,-0.62304 0.5957,-0.64258 0.50391,-0.60547 0.66406,0.26953 0.66992,0.25781 -0.0488,0.78516 -0.006,0.87891 0.041,0.89062 0.0801,0.90039 0.12695,0.97266 0.70703,0.23437 0.70899,0.22657 0.67578,-0.7129 0.59375,-0.68164 0.55664,-0.69726 0.51172,-0.71289 0.42187,-0.66406 0.69336,0.18554 0.69727,0.17188 0.0488,0.78515 0.10547,0.8711 0.15234,0.8789 0.19141,0.88477 0.24804,0.94726 0.73047,0.14454 0.73438,0.13476 0.57812,-0.78906 0.50586,-0.75195 0.46289,-0.76172 0.41992,-0.77149 0.33594,-0.71093 0.710939,0.0957 0.710938,0.084 0.150391,0.77344 0.21289,0.84961 0.259766,0.85352 0.302734,0.85351 0.363281,0.91016 0.744141,0.0508 0.744141,0.043 0.476562,-0.85742 0.40625,-0.8086 0.363281,-0.81445 0.320313,-0.81641 0.244141,-0.74804 0.716796,0.006 0.716797,-0.006 0.244141,0.74804 0.318359,0.81641 0.365235,0.81445 0.40625,0.8086 0.476562,0.85742 0.744141,-0.043 0.742187,-0.0508 0.365235,-0.91016 0.302734,-0.85351 0.259766,-0.85352 0.21289,-0.84961 0.148438,-0.77344 0.71289,-0.084 0.710938,-0.0957 0.335937,0.71093 0.419922,0.77149 0.462891,0.76172 0.503906,0.75195 0.580078,0.78906 0.732422,-0.13476 0.732422,-0.14454 0.248047,-0.94726 0.191406,-0.88477 0.150391,-0.8789 0.105469,-0.8711 0.05078,-0.78515 0.697265,-0.17188 0.69336,-0.18554 0.421875,0.66406 0.511719,0.71289 0.554687,0.69726 0.595703,0.68164 0.673828,0.7129 0.710938,-0.22657 0.707031,-0.23437 0.126953,-0.97266 0.08008,-0.90039 0.03906,-0.89062 -0.0039,-0.87891 -0.04883,-0.78516 0.669922,-0.25781 0.664063,-0.26953 0.503906,0.60547 0.595703,0.64258 0.638672,0.62304 0.675781,0.60157 0.757813,0.62109 0.677734,-0.3125 0.671875,-0.32227 0.0039,-0.98046 -0.0332,-0.9043 -0.07227,-0.88867 -0.115235,-0.86914 -0.146484,-0.77344 0.630859,-0.33985 0.626953,-0.35156 0.574219,0.53906 0.673828,0.5625 0.710938,0.53711 0.746094,0.51172 0.830078,0.52344 0.630859,-0.39648 0.626953,-0.40235 -0.11914,-0.97461 -0.146485,-0.89258 -0.183594,-0.87304 -0.222656,-0.84766 -0.242187,-0.75 0.583984,-0.41601 0.578125,-0.42579 0.636719,0.46094 0.738281,0.47461 0.773438,0.44336 0.804687,0.41602 0.888672,0.41211 0.576172,-0.47071 0.572265,-0.47851 -0.240234,-0.95117 -0.257812,-0.86719 -0.291016,-0.8418 -0.326172,-0.81445 -0.333984,-0.71289 0.52539,-0.48633 0.519532,-0.49609 0.689453,0.3789 0.792968,0.37695 0.822266,0.34375 0.849609,0.31055 0.933594,0.29883 0.513672,-0.53906 0.507813,-0.54688 -0.357422,-0.91211 -0.365235,-0.83008 -0.394531,-0.79882 -0.425781,-0.76563 -0.419922,-0.66601 0.460937,-0.54883 0.453125,-0.55664 0.732422,0.28906 0.832032,0.27539 0.859375,0.23828 0.882812,0.20117 0.962891,0.17969 0.443359,-0.59961 0.433594,-0.60547 -0.46875,-0.86133 -0.464844,-0.77734 -0.492187,-0.74219 -0.519532,-0.70898 -0.5,-0.60547 0.388672,-0.60352 0.378906,-0.60937 0.763672,0.19531 0.861328,0.16992 0.88086,0.12696 0.90039,0.0898 0.980469,0.0586 0.363281,-0.65039 0.353516,-0.65625 -0.572266,-0.79492 -0.558593,-0.71289 -0.582032,-0.67578 -0.603515,-0.63672 -0.572266,-0.53906 0.310547,-0.64649 0.300781,-0.65234 0.779297,0.0977 0.876953,0.0605 0.890625,0.0156 0.904297,-0.0234 0.978516,-0.0664 0.279297,-0.69141 0.269531,-0.69336 -0.667969,-0.71875 -0.644531,-0.63672 -0.660156,-0.59766 -0.679688,-0.55468 -0.634765,-0.46485 0.226562,-0.67968 0.216797,-0.6836 0.787109,-0.002 0.875,-0.0488 0.886719,-0.0957 0.894531,-0.13672 0.962891,-0.1875 0.189453,-0.7207 0.179688,-0.72266 -0.751954,-0.62891 -0.71875,-0.55078 -0.730468,-0.51172 -0.742188,-0.46484 -0.689453,-0.38086 0.140625,-0.70312 0.126953,-0.70508 0.78125,-0.0996 0.863281,-0.16016 0.867188,-0.20703 0.871094,-0.24805 0.929687,-0.30664 0.09961,-0.73828 0.08789,-0.74023 L 50.951029,5.26211 50.169779,4.80508 49.380717,4.38907 48.585795,4.01993 47.853373,3.72891 47.904153,3.01407 47.943213,2.29727 48.706885,2.1 l 0.833984,-0.26562 0.835938,-0.3125 0.832031,-0.35547 0.886719,-0.42187 0.0039,-0.74415 -0.0039,-0.74609 -0.886719,-0.41992 -0.832031,-0.35547 -0.835938,-0.3125 -0.833984,-0.26758 -0.761719,-0.19726 -0.04102,-0.71485 -0.05078,-0.71679 0.732422,-0.29102 0.794922,-0.36914 0.789062,-0.41406 0.78125,-0.45703 0.826172,-0.5293 -0.08789,-0.73828 -0.09961,-0.74024 -0.929687,-0.30664 -0.871094,-0.24804 -0.867188,-0.20508 -0.863281,-0.16016 -0.78125,-0.0996 -0.126953,-0.70508 -0.140625,-0.70312 0.689453,-0.38086 0.742188,-0.4668 0.730468,-0.50976 0.71875,-0.55078 0.751954,-0.62891 -0.179688,-0.72266 -0.189453,-0.7207 -0.962891,-0.1875 -0.894531,-0.13672 -0.886719,-0.0957 -0.875,-0.0508 h -0.787109 l -0.216797,-0.6836 -0.226562,-0.68164 0.634765,-0.46289 0.679688,-0.55664 0.660156,-0.59765 0.644531,-0.63672 0.667969,-0.7168 -0.269531,-0.69531 -0.279297,-0.69141 -0.978516,-0.0644 -0.904297,-0.0234 -0.890625,0.0156 -0.876953,0.0605 -0.779297,0.0977 -0.300781,-0.65235 -0.310547,-0.64648 0.572266,-0.53906 0.603515,-0.63672 0.582032,-0.67578 0.558593,-0.71289 0.572266,-0.79492 -0.353516,-0.65625 -0.363281,-0.6504 -0.980469,0.0566 -0.90039,0.0898 -0.88086,0.12891 -0.861328,0.16992 -0.763672,0.19336 -0.378906,-0.60938 -0.388672,-0.60156 0.5,-0.60742 0.519532,-0.70703 0.492187,-0.74414 0.464844,-0.7754 0.46875,-0.86132 -0.433594,-0.60547 -0.443359,-0.59961 -0.962891,0.17773 -0.882812,0.20313 -0.859375,0.23828 -0.832032,0.27539 -0.732422,0.28906 -0.453125,-0.55664 -0.460937,-0.54883 0.419922,-0.66601 0.425781,-0.76563 0.394531,-0.80078 0.365235,-0.82812 0.357422,-0.91407 -0.507813,-0.54492 -0.513672,-0.54101 -0.933594,0.29882 -0.849609,0.3125 -0.822266,0.34375 -0.792968,0.37696 -0.689453,0.37695 -0.519532,-0.49414 -0.52539,-0.48633 0.333984,-0.71289 0.326172,-0.81445 0.291016,-0.8418 0.257812,-0.86914 0.240234,-0.95117 -0.572265,-0.47852 -0.576172,-0.4707 -0.888672,0.41406 -0.804687,0.41602 -0.773438,0.44336 -0.738281,0.47265 -0.636719,0.46289 -0.578125,-0.42578 -0.583984,-0.41797 0.242187,-0.74804 0.222656,-0.84961 0.183594,-0.8711 0.146485,-0.89453 0.11914,-0.97265 -0.626953,-0.4043 -0.630859,-0.39453 -0.830078,0.52148 -0.746094,0.51368 -0.710938,0.5371 -0.673828,0.5625 -0.574219,0.53711 -0.626953,-0.34961 -0.630859,-0.33984 0.146484,-0.77344 0.115235,-0.87109 0.07227,-0.88867 0.0332,-0.9043 -0.0039,-0.98047 -0.671875,-0.32031 -0.677734,-0.31445 -0.757813,0.62304 -0.675781,0.60157 -0.638672,0.62304 -0.595703,0.64258 -0.503906,0.60547 -0.664063,-0.26953 -0.669922,-0.25977 0.04883,-0.78515 0.0039,-0.87696 -0.03906,-0.89062 -0.08008,-0.90235 -0.126953,-0.9707 -0.707031,-0.23633 -0.710938,-0.22461 -0.673828,0.71094 -0.595703,0.6836 -0.554687,0.69726 -0.511719,0.71094 -0.421875,0.66406 -0.69336,-0.18359 -0.697265,-0.17188 -0.05078,-0.78515 -0.105469,-0.8711 -0.150391,-0.8789 -0.191406,-0.88477 -0.248047,-0.94922 -0.732422,-0.14453 -0.732422,-0.13477 -0.580078,0.79102 -0.503906,0.75195 -0.462891,0.76172 -0.419922,0.76953 -0.335937,0.71289 -0.710938,-0.0957 -0.71289,-0.084 -0.148438,-0.77344 -0.21289,-0.85156 -0.259766,-0.85157 -0.302734,-0.85351 -0.365235,-0.91016 -0.742187,-0.0527 -0.744141,-0.041 -0.476562,0.85742 -0.40625,0.8086 -0.365235,0.8125 -0.318359,0.81836 -0.244141,0.74804 -0.716797,-0.006 -0.716796,0.006 -0.244141,-0.74804 -0.320313,-0.81836 -0.363281,-0.8125 -0.40625,-0.8086 z m -4.270941,72.96197 a 1,1 0 0 1 0.64204,1.26007 1,1 0 0 1 -1.26008,0.64204 1,1 0 0 1 -0.64203,-1.26007 1,1 0 0 1 1.26007,-0.64204 z m 24.596773,-7.99196 a 1,1 0 0 1 1.396796,-0.22123 1,1 0 0 1 0.221233,1.3968 1,1 0 0 1 -1.396799,0.22123 1,1 0 0 1 -0.22123,-1.3968 z m -9e-6,-25.86257 a 1,1 0 0 1 0.221233,-1.3968 1,1 0 0 1 1.3968,0.22123 1,1 0 0 1 -0.221223,1.39681 1,1 0 0 1 -1.39681,-0.22124 z M -6.798402,-20.9232 a 1,1 0 0 1 -1.26008,-0.64204 1,1 0 0 1 0.64204,-1.26008 1,1 0 0 1 1.26007,0.64204 1,1 0 0 1 -0.64203,1.26008 z m -16.20154,19.92327 A 1,1 0 0 0 -23.999882,0 a 1,1 0 0 0 0.99994,0.99995 1,1 0 0 0 0.99994,-0.99994 1,1 0 0 0 -0.99994,-0.99994 z m 20.548731,-17.94925 h 4.90039 v 1.67774 l 0.043,0.006 c 1.96955,0.2863 3.87663,0.90882 5.63672,1.8379 l 0.0371,0.0195 0.99023,-1.36328 3.96484,2.88085 -0.98632,1.35547 0.0312,0.0312 c 1.42414,1.39018 2.5999,3.0141 3.47656,4.80078 l 0.0195,0.0391 1.60351,-0.52149 1.51368,4.66016 -1.59961,0.51953 0.006,0.043 c 0.33784,1.96082 0.33784,3.96496 0,5.92578 l -0.006,0.043 1.59961,0.51953 -1.51368,4.66016 -1.60351,-0.52149 -0.0195,0.0391 c -0.87666,1.78669 -2.05242,3.41061 -3.47656,4.80079 l -0.0312,0.0312 0.98632,1.35546 -3.96484,2.88086 -0.99023,-1.36328 -0.0371,0.0195 c -1.76009,0.92908 -3.66717,1.5516 -5.63672,1.83789 l -0.043,0.006 v 1.67774 h -4.90039 v -1.67774 l -0.041,-0.006 c -1.96937,-0.28635 -3.876781,-0.90887 -5.636721,-1.83789 l -0.0371,-0.0195 -0.99023,1.36328 -3.96484,-2.88086 0.98632,-1.35546 -0.0312,-0.0312 c -1.42419,-1.39033 -2.59995,-3.01392 -3.47656,-4.80079 l -0.0195,-0.0391 -1.60352,0.52149 -1.51367,-4.66016 1.59961,-0.51953 -0.006,-0.043 c -0.3379,-1.96099 -0.3379,-3.96479 0,-5.92578 l 0.006,-0.043 -1.59961,-0.51953 1.51367,-4.66016 1.60352,0.52149 0.0195,-0.0391 c 0.87661,-1.78686 2.05237,-3.41045 3.47656,-4.80078 l 0.0312,-0.0312 -0.98632,-1.35547 3.96484,-2.88085 0.99023,1.36328 0.0371,-0.0195 c 1.75994,-0.92902 3.667351,-1.55154 5.636721,-1.8379 l 0.041,-0.006 z" />
    <path
       id="circle5244-5"
       style="fill:none;stroke:#0000ff;stroke-width:0.1"
       inkscape:label="Pitch circle"
       d="m 49.999664,3e-5 a 50,50 0 0 1 -50,50 50,50 0 0 1 -49.999996,-50 50,50 0 0 1 49.999996,-50 50,50 0 0 1 50,50 z M 23.499969,4e-5 a 23.5,23.5 0 0 1 -23.5,23.5 23.5,23.5 0 0 1 -23.500001,-23.5 23.5,23.5 0 0 1 23.500001,-23.5 23.5,23.5 0 0 1 23.5,23.5 z" />
  </g>
</svg>
