<?xml version="1.0" encoding="UTF-8" standalone="no"?>
<!-- Created with Inkscape (http://www.inkscape.org/) -->

<svg
   xmlns:dc="http://purl.org/dc/elements/1.1/"
   xmlns:cc="http://creativecommons.org/ns#"
   xmlns:rdf="http://www.w3.org/1999/02/22-rdf-syntax-ns#"
   xmlns:svg="http://www.w3.org/2000/svg"
   xmlns="http://www.w3.org/2000/svg"
   xmlns:sodipodi="http://sodipodi.sourceforge.net/DTD/sodipodi-0.dtd"
   xmlns:inkscape="http://www.inkscape.org/namespaces/inkscape"
   width="210mm"
   height="297mm"
   viewBox="0 0 210 297"
   version="1.1"
   id="svg8"
   inkscape:version="0.92.4 (unknown)"
   sodipodi:docname="stollen35x21+05p.svg">
  <defs
     id="defs2" />
  <sodipodi:namedview
     id="base"
     pagecolor="#ffffff"
     bordercolor="#666666"
     borderopacity="1.0"
     inkscape:pageopacity="0.0"
     inkscape:pageshadow="2"
     inkscape:zoom="2.6530914"
     inkscape:cx="85.03906"
     inkscape:cy="1095.4962"
     inkscape:document-units="mm"
     inkscape:current-layer="g853"
     showgrid="false"
     inkscape:snap-center="true">
    <inkscape:grid
       type="xygrid"
       id="grid815" />
  </sodipodi:namedview>
  <metadata
     id="metadata5">
    <rdf:RDF>
      <cc:Work
         rdf:about="">
        <dc:format>image/svg+xml</dc:format>
        <dc:type
           rdf:resource="http://purl.org/dc/dcmitype/StillImage" />
        <dc:title></dc:title>
      </cc:Work>
    </rdf:RDF>
  </metadata>
  <g
     inkscape:label="Ebene 1"
     inkscape:groupmode="layer"
     id="layer1">
    <g
       id="g853">
      <path
         style="opacity:1;vector-effect:none;fill:#ffe6d5;fill-opacity:1;fill-rule:nonzero;stroke:#ff0000;stroke-width:0.75590545;stroke-linecap:round;stroke-linejoin:round;stroke-miterlimit:4;stroke-dasharray:none;stroke-dashoffset:0;stroke-opacity:1"
         d="M 21.167969 7.1660156 L 18.898438 9.4355469 L 18.898438 39.910156 L 21.412109 42.345703 L 66.142578 42.345703 L 68.212891 44.416016 L 71.816406 85.626953 L 73.888672 87.701172 L 96.189453 87.701172 L 98.259766 85.632812 L 101.86523 44.417969 L 103.9375 42.345703 L 148.66602 42.345703 L 151.18164 39.910156 L 151.18164 9.4316406 L 148.91602 7.1660156 L 21.167969 7.1660156 z M 48.285156 20.574219 C 52.551003 20.574142 56.037196 24.060629 56.037109 28.324219 C 56.037196 32.587807 52.551003 36.074296 48.285156 36.074219 C 44.019309 36.074289 40.540936 32.587799 40.541016 28.324219 C 40.540936 24.060639 44.019309 20.574151 48.285156 20.574219 z M 121.78711 20.574219 C 126.05296 20.574142 129.5372 24.060629 129.53711 28.324219 C 129.5372 32.587807 126.05296 36.074296 121.78711 36.074219 C 117.52126 36.074289 114.04289 32.587799 114.04297 28.324219 C 114.04289 24.060639 117.52126 20.574151 121.78711 20.574219 z "
         transform="scale(0.26458333)"
         id="path964" />
    </g>
  </g>
</svg>
