<?xml version="1.0" encoding="UTF-8" standalone="no"?>
<!-- Created with Inkscape (http://www.inkscape.org/) -->

<svg
   xmlns:dc="http://purl.org/dc/elements/1.1/"
   xmlns:cc="http://creativecommons.org/ns#"
   xmlns:rdf="http://www.w3.org/1999/02/22-rdf-syntax-ns#"
   xmlns:svg="http://www.w3.org/2000/svg"
   xmlns="http://www.w3.org/2000/svg"
   xmlns:sodipodi="http://sodipodi.sourceforge.net/DTD/sodipodi-0.dtd"
   xmlns:inkscape="http://www.inkscape.org/namespaces/inkscape"
   width="210mm"
   height="297mm"
   viewBox="0 0 210 297"
   version="1.1"
   id="svg8"
   inkscape:version="0.92.4 (unknown)"
   sodipodi:docname="stollen35x21.svg">
  <defs
     id="defs2" />
  <sodipodi:namedview
     id="base"
     pagecolor="#ffffff"
     bordercolor="#666666"
     borderopacity="1.0"
     inkscape:pageopacity="0.0"
     inkscape:pageshadow="2"
     inkscape:zoom="5.2981917"
     inkscape:cx="52.874772"
     inkscape:cy="1092.2576"
     inkscape:document-units="mm"
     inkscape:current-layer="layer1"
     showgrid="true">
    <inkscape:grid
       type="xygrid"
       id="grid815" />
  </sodipodi:namedview>
  <metadata
     id="metadata5">
    <rdf:RDF>
      <cc:Work
         rdf:about="">
        <dc:format>image/svg+xml</dc:format>
        <dc:type
           rdf:resource="http://purl.org/dc/dcmitype/StillImage" />
        <dc:title></dc:title>
      </cc:Work>
    </rdf:RDF>
  </metadata>
  <g
     inkscape:label="Ebene 1"
     inkscape:groupmode="layer"
     id="layer1">
    <path
       style="opacity:1;vector-effect:none;fill:#ffe6d5;fill-opacity:1;fill-rule:nonzero;stroke:#ff0000;stroke-width:0.75590551;stroke-linecap:round;stroke-linejoin:round;stroke-miterlimit:4;stroke-dasharray:none;stroke-dashoffset:0;stroke-opacity:1"
       d="M 21.167969,7.5585938 18.898438,9.828125 v 26.736328 l 2.402343,2.402344 37.283203,2.607422 h 9.449219 l 2.070313,2.070312 3.605468,41.212891 2.072266,2.072266 h 18.519531 l 2.070313,-2.06836 3.605468,-41.214844 2.072268,-2.072265 h 9.44726 l 37.28516,-2.607422 2.40039,-2.400391 V 9.8242188 l -2.26562,-2.265625 z"
       transform="scale(0.26458333)"
       id="path919">
      <desc
         id="desc924">depth: 15mm
zoffset: 2mm</desc>
    </path>
    <path
       id="rect817"
       transform="scale(0.26458333)"
       style="opacity:1;vector-effect:none;fill:#ffe6d5;fill-opacity:1;fill-rule:nonzero;stroke:#ff0000;stroke-width:0.75590551;stroke-linecap:round;stroke-linejoin:round;stroke-miterlimit:4;stroke-dasharray:none;stroke-dashoffset:0;stroke-opacity:1"
       d="m 122.83398,20.787109 a 6.2362205,6.2362205 0 0 1 6.23633,6.236329 6.2362205,6.2362205 0 0 1 -6.23633,6.236328 6.2362205,6.2362205 0 0 1 -6.23632,-6.236328 6.2362205,6.2362205 0 0 1 6.23632,-6.236329 z m -75.589839,0 a 6.2362205,6.2362205 0 0 1 6.236328,6.236329 6.2362205,6.2362205 0 0 1 -6.236328,6.236328 6.2362205,6.2362205 0 0 1 -6.236329,-6.236328 6.2362205,6.2362205 0 0 1 6.236329,-6.236329 z">
      <desc
         id="desc922">Depth: a20 mm
Zoffset: -2 mm
Antimatter: true
</desc>
    </path>
  </g>
</svg>
