<?xml version="1.0" encoding="UTF-8" standalone="no"?>
<!-- Created with Inkscape (http://www.inkscape.org/) -->

<svg
   xmlns:dc="http://purl.org/dc/elements/1.1/"
   xmlns:cc="http://creativecommons.org/ns#"
   xmlns:rdf="http://www.w3.org/1999/02/22-rdf-syntax-ns#"
   xmlns:svg="http://www.w3.org/2000/svg"
   xmlns="http://www.w3.org/2000/svg"
   xmlns:sodipodi="http://sodipodi.sourceforge.net/DTD/sodipodi-0.dtd"
   xmlns:inkscape="http://www.inkscape.org/namespaces/inkscape"
   width="210mm"
   height="297mm"
   viewBox="0 0 210 297"
   version="1.1"
   id="svg8"
   inkscape:version="0.92.4 (unknown)"
   sodipodi:docname="stollen50x21+08p.svg">
  <defs
     id="defs2" />
  <sodipodi:namedview
     id="base"
     pagecolor="#ffffff"
     bordercolor="#666666"
     borderopacity="1.0"
     inkscape:pageopacity="0.0"
     inkscape:pageshadow="2"
     inkscape:zoom="3.7520378"
     inkscape:cx="100.53133"
     inkscape:cy="967.41957"
     inkscape:document-units="mm"
     inkscape:current-layer="g853"
     showgrid="false"
     inkscape:snap-center="true"
     inkscape:snap-bbox="true"
     inkscape:object-nodes="false"
     inkscape:bbox-nodes="true"
     inkscape:snap-bbox-edge-midpoints="true">
    <inkscape:grid
       type="xygrid"
       id="grid815" />
  </sodipodi:namedview>
  <metadata
     id="metadata5">
    <rdf:RDF>
      <cc:Work
         rdf:about="">
        <dc:format>image/svg+xml</dc:format>
        <dc:type
           rdf:resource="http://purl.org/dc/dcmitype/StillImage" />
        <dc:title />
      </cc:Work>
    </rdf:RDF>
  </metadata>
  <g
     inkscape:label="Ebene 1"
     inkscape:groupmode="layer"
     id="layer1">
    <g
       id="g853">
      <path
         style="opacity:1;vector-effect:none;fill:#ffe6d5;fill-opacity:1;fill-rule:nonzero;stroke:#ff0000;stroke-width:0.75590545;stroke-linecap:round;stroke-linejoin:round;stroke-miterlimit:4;stroke-dasharray:none;stroke-dashoffset:0;stroke-opacity:1"
         d="M 138.33008 97.103516 L 125.99414 127.94531 L 124.90625 140.38672 L 122.83398 142.45898 L 32.751953 142.45898 L 30.236328 144.89453 L 30.236328 175.37305 L 32.501953 177.63867 L 216.94141 177.63867 L 219.21094 175.36914 L 219.21094 144.89453 L 216.69727 142.45898 L 160.62891 142.45898 L 158.55859 140.38867 L 157.4707 127.94727 L 145.13281 97.103516 L 138.33008 97.103516 z M 104.9375 150.80273 A 5.8582674 5.8582674 0 0 1 110.79492 156.66211 A 5.8582674 5.8582674 0 0 1 104.9375 162.51953 A 5.8582674 5.8582674 0 0 1 99.080078 156.66211 A 5.8582674 5.8582674 0 0 1 104.9375 150.80273 z M 178.44922 150.80273 A 5.8582674 5.8582674 0 0 1 184.30859 156.66211 A 5.8582674 5.8582674 0 0 1 178.44922 162.51953 A 5.8582674 5.8582674 0 0 1 172.5918 156.66211 A 5.8582674 5.8582674 0 0 1 178.44922 150.80273 z "
         transform="scale(0.26458333)"
         id="path972">
        <desc
           id="desc826">Depth: 15mm</desc>
      </path>
      <g
         id="g855"
         transform="translate(0,2)">
        <desc
           id="desc857">Depth: a4mm
Zoffset: 5.5mm
Antimatter: true</desc>
        <rect
           y="34"
           x="25.764744"
           height="7"
           width="4"
           id="rect849"
           style="vector-effect:none;fill:#f2f2f2;fill-rule:evenodd;stroke:#ff0000;stroke-width:0;stroke-linecap:square;stroke-miterlimit:4;stroke-dasharray:none" />
        <rect
           style="vector-effect:none;fill:#f2f2f2;fill-rule:evenodd;stroke:#ff0000;stroke-width:0;stroke-linecap:square;stroke-miterlimit:4;stroke-dasharray:none"
           id="rect851"
           width="4"
           height="7"
           x="45.214733"
           y="34" />
      </g>
    </g>
  </g>
</svg>
